/* XPM */
static char *result[] = {
/* columns rows colors chars-per-pixel */
"27 28 8 1 ",
"  c gray25",
". c #800000",
"X c #A80000",
"o c #D02828",
"O c #F89878",
"+ c #909090",
"@ c #F8F8F8",
"# c None",
/* pixels */
"###########################",
"###########################",
"#########        ##########",
"#########        ##########",
"#####    XXXXXXXX    ######",
"#####    XXXXXXXX    ######",
"###  XXooOOooooXXXX..  ####",
"###  XXooOOooooXXXX..  ####",
"###  ooOO@@OOooooXXXX  ####",
"###  ooOO@@OOooooXXXX  ####",
"#  XXooooOOooooooXXXX..  ##",
"#  XXooooOOooooooXXXX..  ##",
"#  oooooooo    XXXXXX..  ##",
"#  oooooooo    XXXXXX..  ##",
"#    oooo  @@++  XX..    ##",
"#    oooo  @@++  XX..    ##",
"#  @@      ++++      ++  ##",
"#  @@      ++++      ++  ##",
"###  @@@@@@    ++++++  ####",
"###  @@@@@@    ++++++  ####",
"###  ++@@@@@@++++++++  ####",
"###  ++@@@@@@++++++++  ####",
"#####    ++++++++    ######",
"#####    ++++++++    ######",
"#########        ##########",
"#########        ##########",
"###########################",
"###########################"
};
