/* XPM */
static char *result[] = {
/* columns rows colors chars-per-pixel */
"64 64 205 2 ",
"   c #000000",
".  c #080703",
"X  c #0C0A05",
"o  c #070608",
"O  c #09070A",
"+  c #0B090C",
"@  c #120E06",
"#  c #110F0E",
"$  c #131107",
"%  c #141209",
"&  c #19160A",
"*  c #1D1A0B",
"=  c #0F0B10",
"-  c #120E14",
";  c #141116",
":  c #1D1B12",
">  c #161319",
",  c #1A151C",
"<  c #211D0C",
"1  c #25210F",
"2  c #2D2A1D",
"3  c #272313",
"4  c #362C14",
"5  c #342B16",
"6  c #3E3617",
"7  c #1E1921",
"8  c #211C25",
"9  c #281E2B",
"0  c #28212C",
"q  c #2D2632",
"w  c #362B3B",
"e  c #3A2C3E",
"r  c #352C37",
"t  c #37303E",
"y  c #39323F",
"u  c #322E24",
"i  c #453C1A",
"p  c #4B3C1C",
"a  c #43353D",
"s  c #4A411C",
"d  c #56431E",
"f  c #4B432A",
"g  c #574B21",
"h  c #695A29",
"j  c #6D562B",
"k  c #74652B",
"l  c #7C682E",
"z  c #7A6737",
"x  c #7F7132",
"c  c #3B2E41",
"v  c #352E45",
"b  c #3E3646",
"n  c #3F3847",
"m  c #3D3548",
"M  c #3F3848",
"N  c #423345",
"B  c #453946",
"V  c #493D46",
"C  c #45354A",
"Z  c #42394A",
"A  c #493C4C",
"S  c #4B3B51",
"D  c #473D50",
"F  c #4C4145",
"G  c #4B414C",
"H  c #554B4A",
"J  c #554849",
"K  c #4D4055",
"L  c #55435C",
"P  c #58445F",
"I  c #544A54",
"U  c #595054",
"Y  c #6D5659",
"T  c #796B4D",
"R  c #7E6255",
"E  c #7D6159",
"W  c #5A4561",
"Q  c #5D4965",
"!  c #5C4669",
"~  c #644D6C",
"^  c #644E65",
"/  c #6D546D",
"(  c #67506F",
")  c #755B64",
"_  c #745C6B",
"`  c #785F6E",
"'  c #664E71",
"]  c #684F74",
"[  c #695071",
"{  c #715A73",
"}  c #7D6567",
"|  c #7A626E",
" . c #7B6477",
".. c #776075",
"X. c #82662F",
"o. c #856931",
"O. c #8A6D34",
"+. c #856937",
"@. c #837433",
"#. c #8B7C37",
"$. c #8C7339",
"%. c #957535",
"&. c #9A7937",
"*. c #93733C",
"=. c #987738",
"-. c #9D7C3A",
";. c #987735",
":. c #A17F3B",
">. c #937441",
",. c #987F44",
"<. c #826B5B",
"1. c #80665A",
"2. c #8A7A59",
"3. c #8D744B",
"4. c #846C6A",
"5. c #8E7661",
"6. c #937B63",
"7. c #977F68",
"8. c #836D79",
"9. c #8A747B",
"0. c #9D8B3C",
"q. c #938239",
"w. c #A1823C",
"e. c #A3883E",
"r. c #A6913E",
"t. c #A8933F",
"y. c #9C8147",
"u. c #9B8A51",
"i. c #A58645",
"p. c #A98B49",
"a. c #A78946",
"s. c #AB9541",
"d. c #AF9548",
"f. c #B59A45",
"g. c #B49C4D",
"h. c #B79B46",
"j. c #A08C52",
"k. c #AB9556",
"l. c #B49A58",
"z. c #BDA646",
"x. c #BDA649",
"c. c #BEA94B",
"v. c #B6A248",
"b. c #BAA250",
"n. c #9B8366",
"m. c #9D8568",
"M. c #9D9366",
"N. c #A29168",
"B. c #BBA361",
"V. c #B5A974",
"C. c #C2AA47",
"Z. c #C3AC4A",
"A. c #C7B14D",
"S. c #CBB34D",
"D. c #C4AC5E",
"F. c #C3AE52",
"G. c #CBB455",
"H. c #C7B153",
"J. c #D5BC53",
"K. c #D4BB57",
"L. c #C4AD67",
"P. c #C2B57B",
"I. c #DDC556",
"U. c #DCC459",
"Y. c #E4CC57",
"T. c #E4CB59",
"R. c #E8CF5B",
"E. c #EAD15B",
"W. c #CFC17F",
"Q. c #D5C376",
"!. c #DFC862",
"~. c #E4CD62",
"^. c #E7D061",
"/. c #E9D164",
"(. c #E3D07B",
"). c #A38F84",
"_. c #A59083",
"`. c #AE9A86",
"'. c #C9BD83",
"]. c #D3C484",
"[. c #D2C489",
"{. c #D7C98B",
"}. c #DDCC87",
"|. c #DED08F",
" X c #D9C795",
".X c #CEC085",
"XX c #E1CE88",
"oX c #E5D281",
"OX c #E8D68D",
"+X c #F0DD82",
"@X c #ECDA93",
"#X c #E5D49A",
"$X c #EDDD9A",
"%X c #E3D498",
"&X c #F0DF94",
"*X c #F0DF99",
"=X c #E0CF98",
"-X c #F4E396",
";X c #F5E49B",
":X c #F9E89A",
">X c #FBECA3",
",X c #F3E3A0",
"<X c #FFF1A6",
"1X c #FFF4A9",
"2X c None",
/* pixels */
"2X2X2X2X2X2X2X2X2X2X2X2X2X2X2X[ ] [ ( ( [ ' _.>X:X>X:X,X>X$X8.' ' ' [ [ ( [ [ ( [ ( ( ( ( 2X2X2X2X2X2X2X2X2X2X2X2X2X2X2X2X2X2X2X",
"2X2X2X2X2X2X2X2X2X2X2X2X2X2X2X[ ( ( [ [ ] ~ _.>X,X>X,X>X>X;X8.' [ [ ( [ [ ( [ [ [ [ ( ( [ 2X2X2X2X2X2X2X2X2X2X2X2X2X2X2X2X2X2X2X",
"2X2X2X2X2X2X2X2X2X2X2X2X2X2X2X[ ( ( ( ~ ~ ~ ).>X>X>X>X>X>X;X8.' ~ ( ( [ [ ( ( [ ~ [ ( [ [ 2X2X2X2X2X2X2X2X2X2X2X2X2X2X2X2X2X2X2X",
"2X2X2X2X2X2X2X2X2X2X2X2X2X2X2X[ ( ' {  . ...`.*X*X-X@X#X#X X8.' [ ( ( ( [ [ ( [ [ [ [ [ ( 2X2X2X2X2X2X2X2X2X2X2X2X2X2X2X2X2X2X2X",
"2X2X2X2X2X2X2X2X[ ( [ [ [ [ ( ( ( ' 8.=X#X#XoX~.~.~.m. . . .[ [ [ [ [ [ ( ( [ ] ( [ ( ( [ ( ( [ [ [ ( [ [ 2X2X2X2X2X2X2X2X2X2X2X",
"2X2X2X2X2X2X2X2X[ [ ( ( [ ( ( ( ' ~ 9.,X>X>X+XI.Y.Y.5.' ' ] ] ( [ [ [ [ [ [ [ ( [ [ [ [ [ [ [ ( ( [ [ [ ( 2X2X2X2X2X2X2X2X2X2X2X",
"2X2X2X2X2X2X2X2X( [ [ [ [ [ ( ( [ ~ 9.,X>X>X+XT.Y.T.7.' ' ' ( ( [ [ [ [ [ [ [ [ [ [ [ ( ( [ [ [ ( [ ( ( [ 2X2X2X2X2X2X2X2X2X2X2X",
"2X2X2X2X2X2X2X[ ( [ ( [ ( ] ( ( ' ' 9.&X-X;X(.G.H.G.5.! ' ~ ~ ~ ~ ^ ~ ~ ~ ~ ~ ~ ~ ~ [ [ ( [ ( [ [ ( [ [ ( 2X2X2X2X2X2X2X2X2X2X2X",
"2X2X2X2X[ [ ( [ [ ( [ [ [ [ [ [ ( ' 4.!.~./.k.J H H G A Z A Z A C A Z A Z A A Z A W ( ( [ ( [ [ [ [ [ [ ~ [ [ [ 2X2X2X2X2X2X2X2X",
"2X2X2X2X~ [ [ [ [ [ ] [ [ [ [ [ ' ' 4.U.Y.T.u.v m m M b M M M b Z b M M b b M M M W ( ( [ ( ( ( [ [ [ [ [ [ [ [ 2X2X2X2X2X2X2X2X",
"2X2X2X2X[ [ [ ( ( ( [ [ [ [ [ [ ( ' 4.U.T.R.u.b m m Z Z Z M b Z Z M M M b Z b Z n P [ [ ( [ [ [ [ ~ [ [ [ [ [ [ 2X2X2X2X2X2X2X2X",
"2X2X2X2X( [ [ ( [ [ [ ~ ^ ~ ~ ~ ' ' 4.K.J.J.j.H H J Z M M Z Z b b M Z M Z n Z Z n L ' ' ~ ~ ' ! ^ / Y / / / / / / 2X2X2X2X2X2X2X",
"[ [ ( ( [ ( [ [ [ ( ( L C A D ~ [ ] ) :.w.q.f.G.G.G.T v M M M Z Z M M Z b Z Z b n Z A A Z D A D J +.>.>.*.*.>.*.R ' [ [ [ [ ( [ ",
"[ ( ( ( [ ( [ ( [ ( ( S b b Z ~ [ ( ) *.;.*.f.R.T.R.T m M b M M b Z M Z Z b n Z M n n n M M b n V *.&.&.=.=.&.&.1.] [ [ [ [ ( [ ",
"[ [ ( ( ( [ ( [ [ [ ( K b b Z ~ [ ] ) *.;.%.f.T.Y.T.T v b b M Z Z Z Z Z Z Z b b M M M n M m M M V *.;.;.%.%.%.;.R ~ ( [ [ [ [ [ ",
"( ( [ [ [ [ ( ~ ~ ~ ~ K n b Z ~ ( ] ) :.w.:.h.I.I.I.2.I U U b t e t t t t b n Z M Z Z n M F F Z J ,.i.i.i.i.a.a.1.] [ [ ( ( [ ( ",
"[ [ ( [ [ [ [ W Z A A Z M M A ~ ( ' } K.I.I.S.Z.Z.Z.Q.%X%X[.u o O O O O . 7 Z Z n Z n n N T *.O.,.OX@X@X@X@X@X&XN.] ( ( ( [ ( [ ",
"[ ( [ ( ] ( [ L n b M M M n Z Q ] ' 4.U.U.T.J.x.C.C.oX>X<X$X2             > M b Z n n n B +.-.;.p.-X>X>X>X>X>X>X`.' ( ] ] ( ( [ ",
"( ( [ ( [ [ [ L b Z n n Z Z A ~ ( ' 4.U.T.I.J.Z.Z.Z.oX>X>X#X2             , M Z Z Z Z Z B +.%.%.i.*X>X>X>X>X>X>X`.' ' ( [ [ [ [ ",
"[ [ [ ( ~ ~ ~ L b Z n b t t b Q ] ' 4.U.Y.T.A.r.r.t.Q.-X-XOXf : 3 :       > b t t w t t t 3.a.i.d.&X-X*X*X#X#X#X).' ' ' ( ( [ ( ",
"( ( ( ^ A A D Z M Z n , o o - W ] ' 4.U.U.R.#.% & & $.G.H.G.].{.|.V.o     o o O O O O o - V.&X@XOX/.~.R.L... . .{ [ [ [ [ ( [ ] ",
"( ( ] Q Z b M M M Z Z ;     . P [ ' 4.U.Y.R.x       k Z.C.Z.&X>X1X'.+                   X P.<X>X*X~.Y.Y.B.' ~ ] [ ~ [ [ ] [ [ [ ",
"] ( ( Q Z b M Z Z Z Z ;     O P [ ' 4.I.T.R.@.      l S.C.A.&X>X<X.XX                   o V.<X,X-XR.R.R.B.] ] [ [ [ [ [ [ [ [ [ ",
"( ( ( Q Z Z b b t t t ;     O P [ ' 4.U.I.R.@.      h s.r.s.XX@X-XP.2 : 3 %       X $ $ : P.<X>X&XG.C.A.j.W W W ^ [ ~ [ [ [ [ [ ",
"[ [ [ ^ Z n Z 0 . O O       O P ] ' 4.U.T.R.x       @ & & < $.p.i.k.].{.|.u.o     p O.X.O.}.>X<X{.5 * * & = + + c ] [ [ [ [ [ [ ",
"( ] ( Q Z Z Z 8             O P [ ' 4.U.I.R.@.              k =.%.p.>X>X1XM.      g :.&.:.XX>X>X[.#             w [ [ [ [ [ [ [ ",
"] ( ] Q Z Z A 8             O P ' ' 4.U.T.R.@.            . l w.%.p.;X>X<XM.      d -.%.-.XX>X<X[.%             w ] [ [ [ [ [ [ ",
"[ ( [ W y y v 7             O P ] ' 4.U.I.T.#.* * * X     . j o.X.,.OX-X:XM.* * & j >.*.>.XX>X<X[.%             w [ [ [ [ [ [ ~ ",
"( [ ] S = O O .             O P ] ' } Z.Z.Z.Z.Z.Z.A.s       @ % @ 4 x.G.H.A.Z.Z.A.2./ / _  X:X<X[.;             e [ [ [ [ [ [ [ ",
"[ ( ] S                     O P ] ' } x.C.x.S.R.R.R.g             < f.C.z.S.R.R.R.n.' ' (  X<X<X[.%             w [ ~ [ [ ~ [ [ ",
"[ ( ] S                     O P { ' | x.C.x.G.Y.U.T.g             1 v.A.Z.S.U.T.T.n.' ] /  X<X<X{.%             w ] [ [ [ [ [ ~ ",
"( [ { S .                   O P ] ' } x.C.x.S.I.I.I.h % * * .     < 0.t.r.v.I.I.I.n.' ( [ [.:X:X.X&             a ] [ ~ [ [ [ [ ",
"[ [ ] S                     O L ] ' } v.C.z.Z.Z.Z.x.A.c.Z.v.1     . & & $ g A.Z.Z.5.] [ / L.^./.F.%             w [ [ [ [ ' [ [ ",
"( ] { S                     O W [ ' } z.Z.C.C.z.z.z.I.R.E.I.3             i Z.C.C.2.] ] / D.Y.T.x.$             e [ [ [ [ [ [ ( ",
"[ ( [ S o                   O L [ ] } z.C.x.C.Z.Z.Z.J.T.T.J.1             p Z.Z.Z.5.] ( / D.Y.T.c.$             e [ [ [ ~ [ ( [ ",
"[ [ [ S                     O W [ ' } z.Z.C.v.r.r.t.A.I.U.J.i & * &       i t.r.s.<.' ( / D.Y.T.c.$             w [ [ [ [ [ [ [ ",
"( ( ] S o                   O L ] ] 4.x.C.Z.l & & & @.S.Z.Z.Z.Z.A.0.X     X & & & B [ ] ( D.Y.T.c.$             c ] [ [ [ [ ( ( ",
"[ [ ] S                     O W ] [ } x.C.A.h       l Z.z.C.I.R.E.x.X             c [ [ / D.Y.R.c.$             e [ ( ( [ ( ( ( ",
"[ [ { S                     O W ] ' } x.c.A.k       l S.Z.A.I.Y.E.v..             c [ ~ / L.Y.T.c.$             w [ ( [ [ [ ( [ ",
"[ [ ] S                     O S [ ! ) g.b.b.h       h t.r.r.J.I.T.v.3 * * $       c { ( / D.Y.R.c.$             e ] [ [ ( ( [ ( ",
"[ ] ] S .                   . b S A K _ _ | a       @ & & 1 r.Z.Z.Z.A.Z.S.l       e [ [ / D.R.R.c.$             e [ [ [ ( [ ] [ ",
"[ [ / S o                   . t M m D ' ' ] c             . 0.A.x.Z.T.R./.q.      b [ ( [ D.Y.R.c.$             e ] ( [ [ ( [ [ ",
"[ [ [ S                     . v Z M K ( [ [ c             . e.S.Z.S.U.T.E.#.      c [ [ [ D.T.T.c.$             e { ( [ [ [ [ [ ",
"[ [ [ S                     o q b w M ( [ [ B & & & X     X @.t.r.s.J.J.I.#.* : < A [ [ / D.Y.T.c.$             w [ ( ( [ [ [ [ ",
"[ [ [ S o                     O O o 8 ~ [ ] <.t.t.t.i       $ * & 5 -.w.:.s.Z.Z.Z.5.' ' [ D.Y.R.c.$             w [ [ [ [ [ [ [ ",
"[ [ ] S                             - ~ [ ' 6.Z.Z.Z.p             & O.;.%.h.R.R.E.m.' ( [ D.Y.R.c.$             w [ [ [ [ ~ [ [ ",
"[ [ [ S                             , [ [ ( 6.C.Z.Z.i             * *.:.;.h.T.T.R.m.~ ( / D.Y.T.c.$             w [ [ [ [ [ [ [ ",
"[ [ [ S + O O .                     > L Q L <.g.g.g.f O - + o     & l X.X.w.J.J.J.6.' ( { D.Y.T.c.$       O O o N [ ~ [ [ [ [ ~ ",
"[ [ [ Q v y y ,                     o + = + r ` _ _ ^ W W S >       @ % @ p w.w.w.1.' ( ( D.T.T.c.%     - e t t K [ ( [ [ ( [ [ ",
"[ [ ( ^ Z Z Z 0                             q [ ] ~ [ [ ] ~ >             4 =.%.&.E ' ( / D.Y.R.c.$     > Z M Z W [ [ [ ( [ [ ( ",
"[ [ ( ! M M Z 8                             q [ ] [ [ ( [ ^ -             4 -.-.-.E ( ' { D.R.R.c.$     > M Z M L ( ( ( ( [ [ ( ",
"( [ [ Q D Z G 0 o O O                       9 W ^ W ~ ] [ ~ 8 O - +       5 O.X.o.Y ( ( ( B.K.K.g.$     > Z A A W ( ( [ [ [ ( [ ",
"2X2X2X2X~ ~ ( K t y t ;                     . + + = C ] [ ( ~ W W S O     . $ % $ B [ [ [ _ |  .^ X     8 ~ ~ ~ ~ 2X2X2X2X2X2X2X",
"2X2X2X2X[ [ [ P M Z M >                             N [ ] [ [ [ { S O             e ] [ [ ( ' ( L O     8 ~ [ [ 2X2X2X2X2X2X2X2X",
"2X2X2X2X[ [ [ L n n M ;                             C { [ [ [ [ ] S o             c { ( [ [ [ [ W o     8 ( ( [ 2X2X2X2X2X2X2X2X",
"2X2X2X2X( [ [ L A Z A , o O O O O O o               e W Q W ( ( { L - + = O       N ] [ ( ~ ' ~ L > + + 9 ( ( [ 2X2X2X2X2X2X2X2X",
"2X2X2X2X2X2X2X~ ' ~ ~ Z t y t t v y q               O = = ; S ] ] ( ^ P ! e       c [ [ [ K Z A S W W Q W 2X2X2X2X2X2X2X2X2X2X2X",
"2X2X2X2X2X2X2X2X[ [ [ K M Z Z Z Z Z r                     O W { [ ] [ [ ] C       N [ [ ( S b n D ( [ [ [ 2X2X2X2X2X2X2X2X2X2X2X",
"2X2X2X2X2X2X2X2X[ ( [ K n M M M Z Z r                     o W ] [ [ [ [ [ N       c ] ( ( K n b A ' [ [ [ 2X2X2X2X2X2X2X2X2X2X2X",
"2X2X2X2X2X2X2X2X( [ ( K n M Z M M Z r - = + = = = = = = = - S [ [ [ [ [ [ C = = = C ] ( ( S b n A ~ [ [ [ 2X2X2X2X2X2X2X2X2X2X2X",
"2X2X2X2X2X2X2X2X2X2X2X2X2X2X2X2X2X2X2XQ W ^ W Q W W W W ^ W ~ [ ( [ [ [ [ [ W W W ~ ( ( [ 2X2X2X2X2X2X2X2X2X2X2X2X2X2X2X2X2X2X2X",
"2X2X2X2X2X2X2X2X2X2X2X2X2X2X2X2X2X2X2X[ [ ] ] [ [ [ ] [ [ ] ] [ [ [ ( ( [ [ [ [ [ [ ( ( [ 2X2X2X2X2X2X2X2X2X2X2X2X2X2X2X2X2X2X2X",
"2X2X2X2X2X2X2X2X2X2X2X2X2X2X2X2X2X2X2X[ ( ( ( [ [ [ [ [ [ ( ( [ ( [ [ [ [ ( [ [ ( [ [ ' ( 2X2X2X2X2X2X2X2X2X2X2X2X2X2X2X2X2X2X2X",
"2X2X2X2X2X2X2X2X2X2X2X2X2X2X2X2X2X2X2X( [ ( ( ( / [ [ [ [ ( [ [ ( [ ( [ ( [ [ [ [ [ [ [ [ 2X2X2X2X2X2X2X2X2X2X2X2X2X2X2X2X2X2X2X"
};
