/* XPM */
static char *result[] = {
/* columns rows colors chars-per-pixel */
"64 64 186 2 ",
"   c #000000",
".  c #0C0B06",
"X  c #05060A",
"o  c #0A0A0C",
"O  c #11110C",
"+  c #0C0D12",
"@  c #0F101A",
"#  c #141314",
"$  c #13131C",
"%  c #1C1C1C",
"&  c #100F10",
"*  c #161725",
"=  c #191A2B",
"-  c #181A29",
";  c #1E1E32",
":  c #252837",
">  c #3D3E3C",
",  c #353434",
"<  c #40403E",
"1  c #53522B",
"2  c #75753F",
"3  c #2B2D49",
"4  c #292943",
"5  c #2D314A",
"6  c #33384C",
"7  c #363948",
"8  c #2E3153",
"9  c #393E55",
"0  c #35395E",
"q  c #393D5C",
"w  c #353854",
"e  c #393C63",
"r  c #3B415A",
"t  c #3E436C",
"y  c #424142",
"u  c #44444B",
"i  c #4A4749",
"p  c #4A4C5B",
"a  c #48495A",
"s  c #525359",
"d  c #62494F",
"f  c #6A5057",
"g  c #494D67",
"h  c #4B516C",
"j  c #55556B",
"k  c #5E556B",
"l  c #414674",
"z  c #464C77",
"x  c #4C5472",
"c  c #525A7B",
"v  c #555773",
"b  c #605979",
"n  c #746F74",
"m  c #737172",
"M  c #76737E",
"N  c #9E596C",
"B  c #A2596B",
"V  c #BC5E75",
"C  c #BF6078",
"Z  c #C15F77",
"A  c #C26078",
"S  c #C16077",
"D  c #888244",
"F  c #9D964F",
"G  c #9E9E55",
"H  c #AFA757",
"J  c #AFA758",
"K  c #B0A758",
"L  c #B1A959",
"P  c #B7B05D",
"I  c #B9B25F",
"U  c #BAB461",
"Y  c #BEB963",
"T  c #C1BD65",
"R  c #C3BE69",
"E  c #C3C066",
"W  c #C6C36A",
"Q  c #C9C66C",
"!  c #CDCC6E",
"~  c #D0D06F",
"^  c #CECA72",
"/  c #CCC770",
"(  c #D1CE74",
")  c #D1D171",
"_  c #D8D67B",
"`  c #DAD97B",
"'  c #D6D37A",
"]  c #4F4F81",
"[  c #555C84",
"{  c #565987",
"}  c #595D98",
"|  c #4A5083",
" . c #5C639C",
".. c #5B6395",
"X. c #60629E",
"o. c #72718C",
"O. c #5E65A3",
"+. c #5F66A8",
"@. c #6266A3",
"#. c #6269A6",
"$. c #646BAC",
"%. c #6B6BAE",
"&. c #6E6EA1",
"*. c #666EB5",
"=. c #666FB8",
"-. c #6870B7",
";. c #6670B9",
":. c #6971B9",
">. c #7575B3",
",. c #747ABC",
"<. c #7A7DBC",
"1. c #7175BC",
"2. c #7178AF",
"3. c #6E75C1",
"4. c #7278C5",
"5. c #7B7BC3",
"6. c #7B7DCC",
"7. c #7177C3",
"8. c #966897",
"9. c #A56388",
"0. c #B56280",
"q. c #856BA3",
"w. c #8B7AAF",
"e. c #7E81D4",
"r. c #83889E",
"t. c #878ABF",
"y. c #9898BB",
"u. c #9B8CB5",
"i. c #AF8DAC",
"p. c #ABA8AA",
"a. c #BCB5BC",
"s. c #B5B3B4",
"d. c #D18E9E",
"f. c #CCA6B3",
"g. c #DEDC80",
"h. c #E1DF83",
"j. c #E4E385",
"k. c #E7E588",
"l. c #E8E789",
"z. c #ECEC8D",
"x. c #F0F090",
"c. c #898CC3",
"v. c #989DCD",
"b. c #9697C3",
"n. c #8285DA",
"m. c #898ADF",
"M. c #8485D5",
"N. c #9FA0C6",
"B. c #A7A5C8",
"V. c #A6A4D5",
"C. c #BEB9CD",
"Z. c #8A8CE4",
"A. c #8D8EE9",
"S. c #8689E1",
"D. c #9393EE",
"F. c #9D9CE5",
"G. c #9696F4",
"H. c #9999F7",
"J. c #9797F9",
"K. c #9999F9",
"L. c #9798F7",
"P. c #8F90EB",
"I. c #B2AEE6",
"U. c #B6B2E4",
"Y. c #B8B4E3",
"T. c #A3A3F8",
"R. c #B5B5F5",
"E. c #C3BCC9",
"W. c #C4BED7",
"Q. c #CCC5CE",
"!. c #C6C0CE",
"~. c #D3CBD2",
"^. c gray83",
"/. c #CDC6D4",
"(. c #DCDEEC",
"). c #C5C5F9",
"_. c #C9C8F9",
"`. c #D4D4F8",
"'. c #D9D9F8",
"]. c #CECEEA",
"[. c #E6E7EE",
"{. c #EBEBF7",
"}. c #F6F6F6",
"|. c #FCFCFA",
" X c #F5F5F8",
".X c None",
/* pixels */
".X.X.X.X.X.X.X.XJ J H H H H H .X.X.X.X.X.X.X.X.X.X.X.X.X.X.X.X.X.X.X.X.XJ H H H H .X.X.X.X.X.X.X.X.X.XK H L H L L H L .X.X.X.X.X",
".X.X.X.X.X.X.X.XU U U U U U U .X.X.X.X.X.X.X.X.X.X.X.X.X.X.X.X.X.X.X.X.XU U U U U .X.X.X.X.X.X.X.X.X.XL P P P I I I U .X.X.X.X.X",
".X.X.X.X.XJ J W z.z.z.z.z.z.z.W K K .X.X.X.X.X.X.X.X.X.X.X.X.X.X.XK K Y z.z.z.z.j.P L .X.X.X.X.X.XH L ! ! ' z.z.z.z.j.L K .X.X.X",
".X.X.X.X.XJ H W x.x.x.x.x.x.x.W J L .X.X.X.X.X.X.X.X.X.X.X.X.X.X.XK J Y z.x.x.x.l.P K K .X.X.X.X.XL L Q ~ _ x.x.x.x.j.L L .X.X.X",
".X.X.XK L Y Y ) z.x.x.x.x.x.x.g.( ^ L L .X.X.X.X.X.X.X.X.X.X.X.X.XJ J Y x.x.x.x.l.P K K .X.X.XL J K L ) j.j.x.x.x.x.z.( ( R J K ",
".X.X.XK L ! ~ ` x.x.x.x.x.x.x.x.x.z.L L .X.X.X.X.X.X.X.X.X.X.X.X.XJ J Y z.x.x.x.l.P K K .X.XL L K K L j.x.x.x.x.z.x.x.x.x.^ H K ",
".X.X.XK L ! ~ ` z.x.x.x.x.x.x.x.x.l.P K .X.X.X.X.X.X.X.X.X.X.X.X.XK J Y l.z.z.z.j.L K K .X.XL P L L L j.x.x.x.x.x.x.x.x.x./ H K ",
".X.X.XK L ! ~ ) ' ) k.x.x.x.x.x.x.l.L L .X.X.X.X.X.X.X.X.X.X.X.X.X.X.X.XU P P P U .X.X.XK K W ! ! ! ) l.x.x.x.x.x.x.x.x.x.^ L K ",
".X.X.XK L ! ) ) ~ ) l.x.x.x.x.x.x.l.L K .X.X.X.X.X.X.X.X.X.X.X.X.X.X.X.XK K K K K .X.X.XK L ! ) ~ ~ ~ l.x.x.x.x.x.x.x.x.x.^ K K ",
".X.X.XK L E E E E E ` j.j.j.j.` ' ( L L .X.X.X.X.X.X.X.X.X.X.X.X.X.X.X.XK K K K K .X.X.XK K ! ~ ~ ~ ~ l.x.x.x.x.x.x.z._ _ W K K ",
".X.X.X.X.XL K K H K Q ~ ~ ~ ~ I H H .X.X.X.X.X.X.X.X.X.X          .X.X.X.X.X.X.X.X.X.X.XH K ! ~ ~ ) ) l.x.x.x.x.x.x.j.L J .X.X.X",
".X.X.X.X.XL L K J K Q ~ ~ ~ ~ Y L K .X.X.X.X.X.X.X.X.X.X  X X X X .X.X.X.X.X.X.X.X.X.X.XH L ! ~ ) ) ) l.x.z.x.x.x.x.j.L K .X.X.X",
".X.X.X.X.X.X.X.X.X.XP I P P P .X.X.X.X.X.X.X.X.X.X.X  X @.6.4.6.5.4     .X.X.X.X.X.X.X.X.X.XP P T ) ~ ` ' ` x.x.x.x.z.j.j./ J K ",
".X.X.X.X.X.X.X.X.X.XL K L L J .X.X.X.X.X.X.X.X.X.X.X    6.T.K.K.K.3     .X.X.X.X.X.X.X.X.X.XL L I ) ~ ~ ) ` x.x.x.x.x.x.x.( J K ",
".X.X.X.X.X.X.X.X.X.XK K K K K .X.X.X.X.X.X.X.X.X.Xo # % 1.A.Z.Z.A.w & # .X.X.X.X.X.X.X.X.X.XK K I W W W W ( x.x.x.x.z.h.g.R H K ",
".X.X.XK L K K K .X.X.X.X.X.X.X          .X.X.X    % y y  .:.:.;.:.g < ,     .X.X.X.X.X.X.X.X.X.X.XL L L J T x.x.x.x.j.L K K K K ",
".X.X.XL L L L L .X.X.X.X.X.X.X          .X.X.X    % y < X.-.;.-.-.g y ,     .X.X.X.X.X.X.X.X.X.X.XL L L L T x.x.x.x.j.L K K L K ",
"L L I Q Q W W Y L L .X.X.X    0 | z r r :   + X.%.:.5.e.-.-.;.-.:.<.5.5.%.%.w               .X.X.X.X.X.X.X.XR R R R T K K L .X.X",
"L H Y ) ) ~ ~ W L K .X.X.X    z 3.*.c c :   o m.T.K.K.K.5.-.-.-.-.Z.K.K.K.T.e               .X.X.X.X.X.X.X.XL L H H H K L .X.X.X",
"L H Y ~ ~ ~ ~ W K K .X.X.X    t *.#.[ [ q = 4 S.K.K.K.J.e.7.7.4.4.A.K.K.K.K.] ; ; * * = ; ; .X.X.X.X.X.X.X.XL L J J J K K .X.X.X",
"L L E ) ~ ) ) W K K .X.X.X    6 c [ %.-.M.G.G.G.H.K.K.H.J.L.J.J.L.J.H.H.H.K.G.G.A.:.*.6.G.Z.*     .X.X.X.X.X.X.X.X.X.X.X.X.X.X.X",
"L L Y ) ) ~ ) W K K .X.X.X    6 c [ -.-.n.J.J.J.H.J.J.J.J.H.J.K.J.H.H.J.J.K.J.K.G.:.*.e.K.D.*     .X.X.X.X.X.X.X.X.X.X.X.X.X.X.X",
".X.XI I Y I Y I .X.X.X.X.X.X.X- ; 7 y.B.F.H.H.J.J.H.J.H.H.J.J.H.J.K.H.H.J.H.K.H.G.S.S.n.6.4.$     .X.X.X.X.X.X.X.X.X.X.X.X.X.X.X",
".X.X.XL L L L L .X.X.X.X.X.X.X    % E.~.U.J.H.H.H.J.H.H.J.H.K.H.H.H.J.K.K.H.J.J.H.H.H.n.*.*.@     .X.X.X.X.X.X.X.X.X.X.X.X.X.X.X",
".X.X.XL K L K L .X.X.X.X.X.X.X$ $ , !.~.I.J.J.J.J.K.K.J.H.K.J.J.K.J.H.K.J.J.J.H.K.K.K.6.O.} $     .X.X.X.X.X.X.X.X.X.X.X.X.X.X.X",
".X.X.X.X.X.X.X.X.X.X.X.X.X    } A.F.{.}.).J.H.K.H.H.H.J.J.K.H.K.K.H.J.K.H.K.J.K.J.J.K.{ X o .X.X.X.X.X.X.X.X.X.XK L K .X.X.X.X.X",
".X.X.X.X.X.X.X.X.X.X.X.X.X    X.K.T.}.|.).J.K.K.J.K.J.H.H.H.K.K.K.K.J.K.K.K.K.H.K.J.K.c     .X.X.X.X.X.X.X.X.X.XJ K J .X.X.X.X.X",
".X.X.X.X.X.X.X.X.X.X.X.X.X    X.T.T._._.R.J.J.H.H.H.J.K.H.K.n.] ] V._.R.n.n.P.K.K.K.K.} * % o .X.X.X.X.X.X.X.X.XQ ^ ^ K .X.X.X.X",
".X.X.X.X.X.X.X.X.X.X.X.X.X    X.K.K.J.J.J.H.K.K.K.J.K.K.K.K.%.    p.|.(.:.*.n.K.J.L.K.&.< < o     .X.X.X.X.XK K ` x.l.L K .X.X.X",
".X.X.X.X.X.X.X.X.X.X.X.X.XX X X.G.G.H.H.H.J.K.K.H.J.K.K.K.T.>.+ + s.|.(.5.1.Z.K.L.G.H.&.y 7 +   X .X.X.X.X.XK K ` x.j.L K .X.X.X",
".X.X.X.X.X.X.X.X.X.X    - } O.x p j D.H.J.K.K.K.H.J.J.K.'.{.[.^.^.{.|. X[.[.R.K.G.4.1.-.#.#.x g 5     .X.X.X.X.XU U U .X.X.X.X.X",
".X.X.X.X.X.X.X.X.X.X    = -.;.h > a G.K.K.K.K.K.K.K.H.K.{.|.|.|.|.|. X|.|.|.).K.G.:.:.-.-.-.c c 7     .X.X.X.X.XJ J J .X.X.X.X.X",
".X.X.X.X.X.X.X.X.X.X    - *.:.o.m M >.>.>.>.<.D.K.K.K.L._.`.`.`.`.`.'.].s.s.v.m.n.:.:.:.;.-. ...q     .X.X.X.X.X.XK K .X.X.X.X.X",
".X.X.X.X.X.X.X.X.X.X    - -.-.B.^.a.i < < < u Z.K.K.L.L.L.L.L.L.L.L.L.M.y > { =.-.-.:.:.:.-.;.:.z     .X.X.X.X.X.X.X.X.X.X.X.X.X",
".X.X.X.X.X.X.X.X.X.X    = *.*.B.~.f.i y y < i m.L.L.G.L.L.L.G.G.L.L.L.M.u y [ :.-.:.-.-.-.-.*.=.l     .X.X.X.X.X.X.X.X.X.X.X.X.X",
".X.X.X.X.X.X.X.X.X.X.X.X.X- = h o.o.B B B B N k j j j j j j j j j j j v  . .$.:.:.:.;.O.[ [ : - * .X.X.X.X.X.X.X.X.X.X.X.X.X.X.X",
".X.X.X.X.X.X.X.X.X.X.X.X.X    6 c c A A C A C i > > > > > > > > > > > a -.:.:.-.:.;.:. .c h o     .X.X.X.X.X.X.X.X.X.X.X.X.X.X.X",
".X.X.X.X.X.X.X.X.X.X.X.X.X    : r p 9.9.C S C d d d d d d d f m m s u h -.-.:.:.-.:.:.{ r r +   .X.X.X.X.X.X.X.X.X.X.X.X.X.X.X.X",
".X.X.X.X.X.X.X.X.X.X.X.X.X.X.X    @ $.:.8.S S C C C C C C C d. X}.r.x [ *.*.-.:.;.:.:.e     .X.X.X.X.X.X.X.X.X.X.X.X.X.X.X.X.X.X",
".X.X.X.X.X.X.X.X.X.X.X.X.X.X.X    @ *.:.8.S C C C C C C S C d. X}.r.x [ -.:.:.-.:.:.:.0     .X.X.X.X.X.X.X.X.X.X.X.X.X.X.X.X.X.X",
".X.X.X.X.X.X.X.XL H L L D     : 6 r $.-.u.f.f.f.f.i.q.q.q.q.w.v.v.2. .#.-.:.:.:.-.:.:.e     .X.X.X.X.X.X.X.X.X.X.X.X.X.X.X.X.X.X",
".X.X.X.X.X.X.X.XL L L L D     7 c [ *.*.N.^.~.~.~.B.*.;.=.=.*.*.*.*.:.:.:.-.-.=.:.:.:.0     .X.X.X.X.X.X.X.X.X.X.X.X.X.X.X.X.X.X",
".X.X.X.X.X.X.X.XP P P I D     9 [ [ #.X.y.E.C.W./.V.7.7.,.<.<.<.<.:.:.:.:.=.=.:.*.#.#.e + + .X.X.X.X.X.X.X.X.X.X.X.X.X.X.X.X.X.X",
".X.X.X.X.XK H U ~ ~ ~ ) G     z 3.#.i r [ :.1.D.H.L.G.G.C./././.Q.t.;.:.:.:.:.:.#.u y p c h +     .X.X.X.X.X.X.X.X.X.X.X.X.X.X.X",
".X.X.X.X.XK L I ) ~ ) ) G     t :.$.u < c 3.3.G.L.L.J.L./.~././.~.t.*.;.;.:.:.:.*.y > a c h +     .X.X.X.X.X.X.X.X.X.X.X.X.X.X.X",
".X.X.X.X.XK L Y ~ ) ^ ) Y 2 2 i 8 5 % % : 8 0 B.Y.Y.U.Y.I.I.V.b.b.<.-.-.:.:.z 8 8 g g h c x +     .X.X.X.X.X.X.X.X.X.X.X.X.X.X.X",
".X.X.X.X.XL H I ~ ) ) ~ ) ) ` 1             o s.~.~.Q.Q.T.J.Z.=.-.;.:.;.:.:.3   . h c c c x +     .X.X.X.X.X.X.X.X.X.X.X.X.X.X.X",
".X.X.X.X.XL L Y ) ~ ) ) ) ) ' 1 . O         & p.a.a.a.C.F.G.Z.,.,.#.+.+.+.+.3   o g h h g t +     .X.X.X.X.X.X.X.X.X.X.X.X.X.X.X",
".X.X.XK L W ! ~ ~ ~ ~ ) ) ) ) L F F .X.X.X.X.X# # # # % } 3.c.!.!.u X + + + .X.X.XX . o X + .X.X.X.X.X.X.X.X.X.X.X.X.X.X.X.X.X.X",
".X.X.XL L ! ~ ~ ) ~ ) ~ ! ) ) Y K K .X.X.X.X.X          } :.c.~.~.7         .X.X.X          .X.X.X.X.X.X.X.X.X.X.X.X.X.X.X.X.X.X",
".X.X.XK L Y E W ~ ~ ) ) ! E E I L .X.X.X.X.X.XO         0 e h m n ,         .X.X.X        X .X.X.X.X.X.X.X.X.X.X.X.X.X.X.X.X.X.X",
".X.X.XL L L L I ) ) ~ ) W J J .X.X.X.X.XK L K .X.X.X.X.X          .X.X.X.X.X.X.X.X.X.X.X.X.XL L K K K .X.X.X.X.X.X.X.X.X.X.X.X.X",
".X.X.XK L K L I ~ ! ! ~ W L L .X.X.X.X.XL L K .X.X.X.X.X          .X.X.X.X.X.X.X.X.X.X.X.X.XL L L L L .X.X.X.X.X.X.X.X.X.X.X.X.X",
".X.X.X.X.XL L L P P P P I .X.X.X.X.XK J Y ! ! P K .X.X.X.X.X.X.X.X.X.X.X.X.X.X.X.XK K K J P g.k.j.k.j.Y K K .X.X.X.X.X.X.X.X.X.X",
".X.X.X.X.XL K L L L L L K .X.X.X.X.XL L T ) ) L K L .X.X.X.X.X.X.X.X.X.X.X.X.X.X.XK K J H L k.x.x.x.x.Y K J .X.X.X.X.X.X.X.X.X.X",
".X.X.X.X.XK L L L L L K L .X.X.X.X.XL L I W E P K .X.X.X.X.X.X.X.X.X.X.X.X.X.X.X.XR R W R Q l.x.x.x.x.Q U U .X.X.X.X.X.X.X.X.X.X",
".X.X.X.X.X.X.X.X.X.X.X.X.X.X.X.X.X.X.X.XK K L .X.X.X.X.X.X.X.X.X.X.X.X.X.X.XL K P l.x.x.x.x.x.x.x.x.x.` ~ ! L K .X.X.X.X.X.X.X.X",
".X.X.X.X.X.X.X.X.X.X.X.X.X.X.X.X.X.X.X.XK K K .X.X.X.X.X.X.X.X.X.X.X.X.X.X.XK K U z.x.x.x.x.x.x.x.x.z.' ~ W L K .X.X.X.X.X.X.X.X",
".X.X.X.X.X.X.X.X.X.X.X.X.X.X.X.X.X.X.X.X.X.X.X.X.X.X.X.X.X.X.X.X.X.X.X.X.X.XK K U l.x.x.x.x.x.x.j.` ` ) ~ Q K K .X.X.X.X.X.X.X.X",
".X.X.X.X.X.X.X.X.X.X.X.X.X.X.X.X.X.X.X.X.X.X.X.X.X.X.X.X.X.X.X.X.X.X.X.X.X.XK K U x.x.x.x.x.x.x.j.~ ~ ~ ~ Q K K .X.X.X.X.X.X.X.X",
".X.X.X.X.X.X.X.X.X.X.X.X.X.X.X.X.X.X.X.X.X.X.X.X.X.X.X.X.X.X.X.X.X.X.X.X.X.X.XK U g.h.l.x.x.x.x.` ! Q Q ! E L J .X.X.X.X.X.X.X.X",
".X.X.X.X.X.X.X.X.X.X.X.X.X.X.X.X.X.X.X.X.X.X.X.X.X.X.X.X.X.X.X.X.X.X.X.X.X.X.X.X.XL J ^ x.x.x.x.` L L L K K .X.X.X.X.X.X.X.X.X.X",
".X.X.X.X.X.X.X.X.X.X.X.X.X.X.X.X.X.X.X.X.X.X.X.X.X.X.X.X.X.X.X.X.X.X.X.X.X.X.X.X.XL J ^ x.x.x.x.` L H L K K .X.X.X.X.X.X.X.X.X.X",
".X.X.X.X.X.X.X.X.X.X.X.X.X.X.X.X.X.X.X.X.X.X.X.X.X.X.X.X.X.X.X.X.X.X.X.X.X.X.X.X.X.X.XY / / / Q W .X.X.X.X.X.X.X.X.X.X.X.X.X.X.X"
};
