/* XPM */
static char *result[] = {
/* columns rows colors chars-per-pixel */
"64 64 180 2 ",
"   c #000000",
".  c #0C0B06",
"X  c #05060A",
"o  c #0A0A0C",
"O  c #11110C",
"+  c #0C0D12",
"@  c #100F10",
"#  c #0F101A",
"$  c #141314",
"%  c #13131C",
"&  c #1C1C1C",
"*  c #161725",
"=  c #17192A",
"-  c #191A2B",
";  c #1A1D27",
":  c #1E1E32",
">  c #202330",
",  c #242639",
"<  c #262A39",
"1  c #2C2E3C",
"2  c #333233",
"3  c #3D3E3C",
"4  c #3A3A36",
"5  c #40403E",
"6  c #292943",
"7  c #2B2D49",
"8  c #2D314A",
"9  c #32374B",
"0  c #33384C",
"q  c #3A3B45",
"w  c #2E3153",
"e  c #343654",
"r  c #393E55",
"t  c #35395E",
"y  c #393D5C",
"u  c #353954",
"i  c #363A60",
"p  c #3B3E66",
"a  c #3C425C",
"s  c #3A4056",
"d  c #3E436C",
"f  c #424142",
"g  c #44444B",
"h  c #49494A",
"j  c #4A4549",
"k  c #474B5D",
"l  c #4A4C5B",
"z  c #494859",
"x  c #525359",
"c  c #62494F",
"v  c #6A5057",
"b  c #4C4E64",
"n  c #4A4E6B",
"m  c #444B67",
"M  c #4B516C",
"N  c #55556B",
"B  c #5E556B",
"V  c #414674",
"C  c #464C77",
"Z  c #4C5472",
"A  c #525A7B",
"S  c #555773",
"D  c #605979",
"F  c #746F74",
"G  c #737172",
"H  c #76737E",
"J  c #9E596C",
"K  c #A2596B",
"L  c #BC5E75",
"P  c #BF6078",
"I  c #C15F77",
"U  c #C16077",
"Y  c #C26078",
"T  c #4F4F81",
"R  c #4A5083",
"E  c #525285",
"W  c #555C84",
"Q  c #545C89",
"!  c #5B5E8C",
"~  c #585C81",
"^  c #5C5F9B",
"/  c #575C97",
"(  c #5C639C",
")  c #5B6395",
"_  c #6F758F",
"`  c #70718E",
"'  c #60629E",
"]  c #766E88",
"[  c #5E65A3",
"{  c #5F66A8",
"}  c #6266A3",
"|  c #6269A6",
" . c #6E6EA1",
".. c #646BAC",
"X. c #6B6BAE",
"o. c #7178AF",
"O. c #666EB5",
"+. c #666FB8",
"@. c #6870B7",
"#. c #6670B9",
"$. c #6971B9",
"%. c #7575B3",
"&. c #7175BC",
"*. c #747ABC",
"=. c #7A7DBC",
"-. c #6E75C1",
";. c #7278C5",
":. c #7B7BC3",
">. c #7B7DCC",
",. c #7177C3",
"<. c #966897",
"1. c #A56388",
"2. c #B56280",
"3. c #856BA3",
"4. c #8B7AAF",
"5. c #7E81D4",
"6. c #83889E",
"7. c #878ABF",
"8. c #9898BB",
"9. c #9B8CB5",
"0. c #AF8DAC",
"q. c #ABA8AA",
"w. c #B4B4B4",
"e. c #BCB5BC",
"r. c #B9B1B6",
"t. c #D18E9E",
"y. c #CCA6B3",
"u. c #898CC3",
"i. c #9697C3",
"p. c #989DCD",
"a. c #8484D2",
"s. c #8285DA",
"d. c #898ADF",
"f. c #8588DE",
"g. c #9FA0C6",
"h. c #A6A6C7",
"j. c #A7A5C9",
"k. c #BEB9CD",
"l. c #A6A4D5",
"z. c #8689E1",
"x. c #8A8CE4",
"c. c #8D8EE9",
"v. c #8F90EB",
"b. c #9E9DE4",
"n. c #9393EE",
"m. c #9C9CE8",
"M. c #9696F4",
"N. c #9999F7",
"B. c #9797F9",
"V. c #9999F9",
"C. c #9798F7",
"Z. c #B2AEE6",
"A. c #B6B2E4",
"S. c #B8B4E3",
"D. c #A4A4FB",
"F. c #A3A2F1",
"G. c #B5B5F5",
"H. c #C3BCC9",
"J. c #C3BDD7",
"K. c #C5BFD8",
"L. c #C6C0CE",
"P. c #CCC5CE",
"I. c #D2CACF",
"U. c #D3CBD2",
"Y. c gray83",
"T. c #C8C1D8",
"R. c #CECEEA",
"E. c #DCDEEC",
"W. c #C5C5F9",
"Q. c #CACAF9",
"!. c #C5C4F7",
"~. c #D4D4F8",
"^. c #D9D9F8",
"/. c #E3E4EE",
"(. c gray93",
"). c #EBEBF7",
"_. c #F6F6F6",
"`. c #FCFCFA",
"'. c #F5F5F8",
"]. c None",
/* pixels */
"].].].].].].].].].].].].].].].].].].].].].].].].].].].].].].].].].].].].].].].].].].].].].].].].].].].].].].].].].].].].].].].].",
"].].].].].].].].].].].].].].].].].].].].].].].].].].].].].].].].].].].].].].].].].].].].].].].].].].].].].].].].].].].].].].].].",
"].].].].].].].].].].].].].].].].].].].].].].].].].].].].].].].].].].].].].].].].].].].].].].].].].].].].].].].].].].].].].].].].",
"].].].].].].].].].].].].].].].].].].].].].].].].].].].].].].].].].].].].].].].].].].].].].].].].].].].].].].].].].].].].].].].].",
"].].].].].].].].].].].].].].].].].].].].].].].].].].].].].].].].].].].].].].].].].].].].].].].].].].].].].].].].].].].].].].].].",
"].].].].].].].].].].].].].].].].].].].].].].].].].].].].].].].].].].].].].].].].].].].].].].].].].].].].].].].].].].].].].].].].",
"].].].].].].].].].].].].].].].].].].].].].].].].].].].].].].].].].].].].].].].].].].].].].].].].].].].].].].].].].].].].].].].].",
"].].].].].].].].].].].].].].].].].].].].].].].].].].].].].].].].].].].].].].].].].].].].].].].].].].].].].].].].].].].].].].].].",
"].].].].].].].].].].].].].].].].].].].].].].].].].].].].].].].].].].].].].].].].].].].].].].].].].].].].].].].].].].].].].].].].",
"].].].].].].].].].].].].].].].].].].].].].].].].].].].].].].].].].].].].].].].].].].].].].].].].].].].].].].].].].].].].].].].].",
"].].].].].].].].].].].].].].].].].].].].].].].].].].].].          ].].].].].].].].].].].].].].].].].].].].].].].].].].].].].].].",
"].].].].].].].].].].].].].].].].].].].].].].].].].].].].  X X X X ].].].].].].].].].].].].].].].].].].].].].].].].].].].].].].].",
"].].].].].].].].].].].].].].].].].].].].].].].].].].  X } :.:.>.:.6     ].].].].].].].].].].].].].].].].].].].].].].].].].].].].",
"].].].].].].].].].].].].].].].].].].].].].].].].].].    >.D.B.V.V.7     ].].].].].].].].].].].].].].].].].].].].].].].].].].].].",
"].].].].].].].].].].].].].].].].].].].].].].].].].. $ % $.c.x.x.c.e O $ ].].].].].].].].].].].].].].].].].].].].].].].].].].].].",
"].].].].].].].].].].].].].].].          ].].].    & f f | $.$.$.$.b f 2     ].].].].].].].].].].].].].].].].].].].].].].].].].].",
"].].].].].].].].].].].].].].].          ].].].    & f f ' $.$.O.$.b f 2     ].].].].].].].].].].].].].].].].].].].].].].].].].].",
"].].].].].].].].].].].].].    t R C s s >   + ' X.*.:.:.$.$.$.#.$.=.:.:.X.X.e               ].].].].].].].].].].].].].].].].].].",
"].].].].].].].].].].].].].    V -.O.A A <   + f.V.V.V.V.:.O.O.O.O.c.V.V.V.D.p               ].].].].].].].].].].].].].].].].].].",
"].].].].].].].].].].].].].    d O.| W W r : 6 z.V.V.V.B.5.,.;.;.,.c.V.V.V.V.E - : * * - : : ].].].].].].].].].].].].].].].].].].",
"].].].].].].].].].].].].].    0 A ~ X.@.a.M.M.B.N.B.V.V.B.B.B.B.B.B.V.N.C.V.B.M.c.$.O.>.B.x.*     ].].].].].].].].].].].].].].].",
"].].].].].].].].].].].].].    0 A ~ @.@.s.B.B.B.V.B.C.V.N.C.N.V.N.N.V.B.V.B.C.N.M.$.O.5.V.n.*     ].].].].].].].].].].].].].].].",
"].].].].].].].].].].].].].].].; > 9 8.j.b.B.B.B.V.N.V.N.C.N.N.B.B.V.N.B.V.N.N.V.B.z.z.s.>.;.%     ].].].].].].].].].].].].].].].",
"].].].].].].].].].].].].].].].    & H.I.A.B.N.B.B.N.B.B.N.C.V.B.N.V.C.V.B.N.B.C.N.V.V.s.O.O.#     ].].].].].].].].].].].].].].].",
"].].].].].].].].].].].].].].].% % 1 P.Y.Z.B.V.V.B.B.N.V.V.V.B.V.B.N.B.V.N.C.V.V.V.V.V.>.[ ^ #     ].].].].].].].].].].].].].].].",
"].].].].].].].].].].].].].    / c.m.(._.!.B.B.V.N.V.B.V.B.V.V.V.B.V.N.V.B.V.V.C.V.V.V.Q X X ].].].].].].].].].].].].].].].].].].",
"].].].].].].].].].].].].].    ' V.D._.`.W.B.V.V.B.N.N.V.V.V.V.V.V.B.B.C.V.V.V.B.V.V.V.T     ].].].].].].].].].].].].].].].].].].",
"].].].].].].].].].].].].].    ^ V.F.Q.Q.G.B.B.V.V.V.N.B.V.V.a.T E l.Q.G.s.s.c.V.V.V.V.! & ; . ].].].].].].].].].].].].].].].].].",
"].].].].].].].].].].].].].    ' D.B.B.B.B.N.V.V.C.V.V.N.V.V.X.    q.`.E.$.O.f.V.C.N.V. .5 3 .     ].].].].].].].].].].].].].].].",
"].].].].].].].].].].].].].X X ^ M.M.N.N.V.V.V.V.N.B.V.N.V.D.%.+ @ w.`.E.=.&.d.V.C.B.B. .f q + X X ].].].].].].].].].].].].].].].",
"].].].].].].].].].].    = ^ ( S z S n.V.B.V.V.V.V.V.B.V.^.)./.Y.Y.(.`.'././.G.B.M.;.&.@.| | Z m 8     ].].].].].].].].].].].].].",
"].].].].].].].].].].    - O.#.n 4 z M.V.V.V.V.V.B.N.N.V.).`.`.`.`.`.`.`.`.`.W.B.M.$.O.$.$.O.A A 9     ].].].].].].].].].].].].].",
"].].].].].].].].].].    - O.$.` G H %.%.%.%.=.n.B.V.V.N.W.~.~.~.~.~.~.R.w.w.p.z.s.$.$.$.O.O.( ) y     ].].].].].].].].].].].].].",
"].].].].].].].].].].    - O.$.j.U.e.h 5 5 5 g x.V.V.C.C.C.B.B.B.B.B.V.a.f 5 Q #.$.$.$.$.$.$.$.$.V     ].].].].].].].].].].].].].",
"].].].].].].].].].].    - O.O.h.U.y.h f 5 5 h x.C.C.M.C.C.C.C.C.C.C.V.a.g f Q $.$.O.$.$.$.O.O.#.V     ].].].].].].].].].].].].].",
"].].].].].].].].].].].].].* = M _ _ K K K K J B N N N N N N N N N N N S ( ( X.$.$.$.O.[ ~ W , = * ].].].].].].].].].].].].].].].",
"].].].].].].].].].].].].].    9 A D P Y P Y P j 3 3 3 3 5 3 4 3 4 3 3 z $.$.$.$.$.$.$.( A Z o     ].].].].].].].].].].].].].].].",
"].].].].].].].].].].].].].    1 a l 1.1.P U P c c c c c c c v G G x g b @.@.$.$.$.$.$.Q s r +   ].].].].].].].].].].].].].].].].",
"].].].].].].].].].].].].].].].    # ..#.<.U U P P P P P P P t.'._.6.Z W O.O.O.$.$.$.#.i     ].].].].].].].].].].].].].].].].].].",
"].].].].].].].].].].].].].].].    # ..#.<.U U P U P P P P P t.'.`.6.Z ~ @.$.@.$.$.$.$.t     ].].].].].].].].].].].].].].].].].].",
"].].].].].].].].].].].].].].  < u a O.O.9.y.y.y.y.0.3.3.3.3.4.g.g.o.[ { O.$.$.$.$.$.$.t     ].].].].].].].].].].].].].].].].].].",
"].].].].].].].].].].].].].].  0 A W O.O.g.U.U.U.U.h.+.#.+.+.#.#.+.+.#.#.$.$.O.$.O.$.$.i     ].].].].].].].].].].].].].].].].].].",
"].].].].].].].].].].].].].].  u W W | | 8.H.k.T.T.j.-.*.=.=.=.=.=.$.#.#.#.$.$.$.$.| ..y + # ].].].].].].].].].].].].].].].].].].",
"].].].].].].].].].].].].].].  V $...g f W $.&.n.N.B.B.M.k.T.P.P.I.7.O.#.$.$.$.$...g f l Z M +     ].].].].].].].].].].].].].].].",
"].].].].].].].].].].].].].].  V $...g 5 W $.-.M.B.B.B.B.T.U.P.U.U.7.#.O.$.$.$.#...g 5 k A M +     ].].].].].].].].].].].].].].].",
"].].].].].].].].].].].].].].].h e 8 & & , w t j.S.S.S.S.Z.Z.l.i.i.*.O.$.$.$.C w e k k M A Z +     ].].].].].].].].].].].].].].].",
"].].].].].].].].].].].].].].].].            o r.I.I.U.P.F.B.x.+.O.O.$.O.$.$.7   X M A A A Z +     ].].].].].].].].].].].].].].].",
"].].].].].].].].].].].].].].].].. .         o q.k.e.e.e.m.B.z.*.*...{ { { { 7   o m M M M m +     ].].].].].].].].].].].].].].].",
"].].].].].].].].].].].].].].].].].].].].].].].$ $ $ $ % ^ -.u.L.J.g X + + + ].].].o X o X o ].].].].].].].].].].].].].].].].].].",
"].].].].].].].].].].].].].].].].].].].].].].].        X / #.u.U.U.3         ].].].          ].].].].].].].].].].].].].].].].].].",
"].].].].].].].].].].].].].].].].].].].].].].].O       X t p n F F 2         ].].].        . ].].].].].].].].].].].].].].].].].].",
"].].].].].].].].].].].].].].].].].].].].].].].].].].].].          ].].].].].].].].].].].].].].].].].].].].].].].].].].].].].].].",
"].].].].].].].].].].].].].].].].].].].].].].].].].].].].          ].].].].].].].].].].].].].].].].].].].].].].].].].].].].].].].",
"].].].].].].].].].].].].].].].].].].].].].].].].].].].].].].].].].].].].].].].].].].].].].].].].].].].].].].].].].].].].].].].].",
"].].].].].].].].].].].].].].].].].].].].].].].].].].].].].].].].].].].].].].].].].].].].].].].].].].].].].].].].].].].].].].].].",
"].].].].].].].].].].].].].].].].].].].].].].].].].].].].].].].].].].].].].].].].].].].].].].].].].].].].].].].].].].].].].].].].",
"].].].].].].].].].].].].].].].].].].].].].].].].].].].].].].].].].].].].].].].].].].].].].].].].].].].].].].].].].].].].].].].].",
"].].].].].].].].].].].].].].].].].].].].].].].].].].].].].].].].].].].].].].].].].].].].].].].].].].].].].].].].].].].].].].].].",
"].].].].].].].].].].].].].].].].].].].].].].].].].].].].].].].].].].].].].].].].].].].].].].].].].].].].].].].].].].].].].].].].",
"].].].].].].].].].].].].].].].].].].].].].].].].].].].].].].].].].].].].].].].].].].].].].].].].].].].].].].].].].].].].].].].].",
"].].].].].].].].].].].].].].].].].].].].].].].].].].].].].].].].].].].].].].].].].].].].].].].].].].].].].].].].].].].].].].].].",
"].].].].].].].].].].].].].].].].].].].].].].].].].].].].].].].].].].].].].].].].].].].].].].].].].].].].].].].].].].].].].].].].",
"].].].].].].].].].].].].].].].].].].].].].].].].].].].].].].].].].].].].].].].].].].].].].].].].].].].].].].].].].].].].].].].].",
"].].].].].].].].].].].].].].].].].].].].].].].].].].].].].].].].].].].].].].].].].].].].].].].].].].].].].].].].].].].].].].].]."
};
