/* XPM */
static char *result[] = {
/* columns rows colors chars-per-pixel */
"64 64 32 1 ",
"  c #5EAF98",
". c #61A693",
"X c #63AB96",
"o c #64AE9B",
"O c #69AE9C",
"+ c #66B19D",
"@ c #6AB39E",
"# c #6CB89E",
"$ c #70B49F",
"% c #66AFA0",
"& c #6AAEA0",
"* c #66B2A2",
"= c #6CB5A2",
"- c #6EB9A4",
"; c #6DB6A8",
": c #6FB9A9",
"> c #71B6A3",
", c #72BAA6",
"< c #78BCA7",
"1 c #71B7A9",
"2 c #74BCAA",
"3 c #79BEAB",
"4 c #76C0AB",
"5 c #7AC2AE",
"6 c #7DC5B1",
"7 c #7EC9B2",
"8 c #82C5B3",
"9 c #82CAB6",
"0 c #86CCB9",
"q c #88CCBA",
"w c #85D0B9",
"e c #89D1BD",
/* pixels */
";;&&&;&;;244:=*+*;;;;:;;********+#-==;**%%**=;--4-----++ +*444*4",
"&>1&&&1;1122--==*;;;::;;***** *-+=*#*-;;%o%**==-=#---=#++++=#4-#",
"&1111&>&;,,---==;***:5:;**%****-=-=-=****;;*@==--==+====-+##---*",
">1&1>1>O==;==---;;;*::;;*% *  4*=--*=*;*%;oo+@++#=-=#==#-+*-*4-#",
">&>>&>$&O=;>---:::-*::-+% +++**-#==-==**&*==&&&&+=-=====---=###*",
">>>&>&&&O@>==--:4:-;--*+ %o*+*=#*===**o==;=&OOO.+=>==#==-----**#",
">>>>&&O&====--224::=--*=%oo+++===+=+*oo==&&OOX..@-=@@=>----=-+4*",
"&><<<$$>=====-4::4-*=*==*o *+=-=--@*XXo%&>><>>$&@>>#O@>>,----#4 ",
"&>366333,>@@>2224-*=-**#++X++@==*# +X o==;<3333<1>$>$@=>,,,,===@",
"&>3809632>=#=>2>4---+#=++++++=-@#+ +XXo&O=<88888<>O>@@#>>--,@@==",
"XO13qee932>>=>>,4#=+=#*#+X+@@=-#@++oO@@OOO>38qq81$>>>$==-=>-@@=#",
".O;39q764,==>=====-#-+-#++@@@=-=@+++@@OX.O=38q88,$O>O>>>#=,-====",
"Xo;<67633,@=-==@+==--=--#@=====@+@@@=@@OO.O<38331$$>>=>@==-,----",
"X&;166631=@@===@+#=4442--==-#=>=@@=#>=OOOXO<333<>$@$$==@@=,2,,2-",
"=&>122,--=#===#=#*#4-44-,-,,--,>#@=>@@$$OXO$<>>>>>>>>@=@==-4-42-",
";;=;11:====>==@====--422,-,,-,4,,=@>>$$>$OO$$$>>$O>>#=>=#=--4-4-",
";**;=--;*#===#==*-*-44,,$>,$5552<$@$>>>>$OO@$OO$=>===-@#@#------",
"*;;;*-;*=======#4*#-#-,#$><<58658>$>OO>O$OO>>$O$&===@-==#=------",
";;;*=***===@++== *#*@O@$$$1<88978<>>$O=$>OO>$OO$>&>@@==##===*++=",
";;;;;;==*++=+#++++#+OXXO$$>388978,>=@&>>>>O>>>>@===>====+=-#++ +",
";1;;=;==@O*o@o@@++@@XXXOO$><66665,#O%&&;1>>>>>=>===@===#=-=+++++",
">;;;;==+o=@@@=O@+#@@OOOO$$><33332=@oX%;&1<1>>>>&&>==@===#==#++++",
";1:;;;=%o*@@@==#=+@@XXOO$O$1221>;==ooo&;1131>>>&O=&=====#*==*++@",
"1111>;=oXXooo===*-##$##O$O@>1>=====%o%;&1133>>OOOOO@@@=#====-==;",
"11;1;;OX%Xoo@-=@4*##@@$>O$O&>>=>*=;*oo%;;22>>>=OO+O@+===#+--=*=-",
";;;;;&Oooooo+=#= #++O@OOO$O>>=;&=;;;%%%%;11;&;=OOOOo=#==--*-*=*-",
"&;&;&&% oo&o@@==+4*#@@@O$OOO>;>&=;;;*;;%=;-=O&=@=o@@+@=@=-*=*;--",
">&;;&%Xooo==+++++*++@@OOOOOO&&;;*;::::;;;;;=o=oo&=@@+@+=#==+*::*",
";;;&&&ooo==@+@*#+++#++@OOOOOO>;;;:::12::*;;@@o@o@=@oo@@++==**=;;",
"&;1&%ooooo*##++#*#*#=@>>&$&&&&&;*;:::1::=;;+++++O&@@@@=++++**;;;",
"1;;;=o%oO+=+++++ #+#+@,3333<>&&1;-:;:::*==*=@+++=O=@@@++o++%**-2",
"111&;==%=;===++     X+,6qqq51>11;::::::;;;=++@=@=>===+++oXo%*;:7",
"=--=#=-@#**#+ +  ooO.O<59994,>,>=>=>,>-@--#+==*##=--=%%% %%%%&18",
"==-+===+4#4*=++X XoXOO>8q0952>$>>>=,,-=---=++#-++--=**o%%oX%.%18",
"---#==@+ *--*+X + OX.O>39q952$>>>>->-------==#=-+-**;%o%o% ooO>3",
"-------@+#---#@@*+O.OO<38554,>>>>->==@-,-44-==-=-==#**%o%%%%OO>3",
",-----=@#=-->;===*#+OO><<53,,>>,>=,,==-244-----=----;*=***;=&==,",
"4--=-----4-4,,=#=*++OO>>,,,,=>;>>;>>-=-,444--,,,--,:--=*==o@@@=>",
"------,:45442,>@-=+@OO@$-,,==>;=-;;=----,42-,22444444:-*%**OO=>,",
"---=@=-267973<>$#=@#>>$@@========;=-;=------=-,344744:=======#==",
"#==+#@-47000831$==@@>>$$+=====*=;=;=--=++==#@>>279975:-====#*@@=",
"+#+++=,459095,>@--@@=>@###=--==;;=&==-==++++@@,2799974-=*===----",
" +X+==-470e083,>==*@$$$#-====--;&;;=--==+o++@@12699744==@@=--,--",
"++++===4559952>#+#+@$,>>##+*+=*;;*;====@++++@>1226542-==+@=-,-,-",
"=++=-@=,25422>@O+OO$,<,,=#+*+%%;;;;**;@+@o+O$#,<1,22,==@++#---2-",
"++#=-#==,22,>=@+O@OO,<<$##+ o%%&;;;*%;+++++@##>1,,,,>#@++++=-,--",
"+#@@-==@@=-=@@@o+@@@,<###++*+%***;;;;=@+X+O##@>>,>,>=##+o++=----",
"+=@+==@++#=@+XoOo@@$$<#<+++o ***;*;;;*=++##O@OO>$>=>####++#----=",
"=#=--=+++##+++=###=-==@=++++*********+++@@@@oO&o@=>>$>><$==#@==@",
"=====++++#==+===--=--==@@+++* *******=*#++@@@O=O$>>$@>>1>>=#==-@",
"*-#++++ +#------------==++++*********#*+++@@+O=oO$$=$>><>,,>===@",
"#--=+++ ++=--------=--@@+X++ *-=*****+++++@=@@OO>=$>>$1,1,,>===@",
"#-44#---+#=---=-------@+oo+++******** ++O+#<42,=1>>$>>>>>>>-==#+",
"+=447575-----=#-=----==@@o+++*;-:*** X++##,80964<1>$>>>>>--=#=#=",
" +-577774-=---=--==---##@+@==*=*****XXo@@@,7ee06<1$>>>>>>--@#=*#",
"++#7ww774-####-#----=---@+@====-****ooo@oX#50e083<>$@>>>>>-=*==+",
". #77774-####==#-=--,,#-=@@=;->=:**=@ooo..=89888<1$>>>>>>-----4=",
"  #4774<-#++#+#==@=--,4##===>=-,:*==@O@ooX=58835>>O@>>O>>>>->,--",
"  ###<####+#####==--,4-4##@=@===4**+O=@oOO$13,,>>$$>$@>>>->>----",
"#X############+#=#=-4---#==#==;>:***O@>OOO$$>$>OO>>&$>O>>>--44--",
"#########+######==---,--==#=12221>>$>>>&O>$>O>>O$$>>$=>>>>,>----",
"#X##X########++#====-###=##-2353<<1>$O>>>>>@>>>O=>>O>>>$#===#=--",
"##########+#+###==#=#@#@@@=-36883<$>$&>$>$>O$>$>@>>>O>>@>==#+++@",
"####X####+######=@=@@++#+##4388883<<&$$>&>>$>@>$>>>O$>>>$=#@+o++"
};
