/* XPM */
static char *result[] = {
/* columns rows colors chars-per-pixel */
"64 64 219 2 ",
"   c #010101",
".  c #0E0906",
"X  c #0B0C0B",
"o  c #080807",
"O  c #130C0A",
"+  c #140606",
"@  c #17120E",
"#  c #0D1213",
"$  c #0F1818",
"%  c #121515",
"&  c #15191A",
"*  c #191C1C",
"=  c #1A1615",
"-  c #2D0C0C",
";  c #320E0E",
":  c #241A14",
">  c #2A1C16",
",  c #271716",
"<  c #351718",
"1  c #28211B",
"2  c #36261D",
"3  c #382106",
"4  c #2C1E23",
"5  c #1A2222",
"6  c #1C2525",
"7  c #212525",
"8  c #28272E",
"9  c #242B2B",
"0  c #27292A",
"q  c #392723",
"w  c #2C3434",
"e  c #2C3A3A",
"r  c #293235",
"t  c #343C3C",
"y  c #35363B",
"u  c #322E33",
"i  c #161F20",
"p  c #511818",
"a  c #711E1E",
"s  c #4C3414",
"d  c #472A27",
"f  c #473327",
"g  c #4B3A3A",
"h  c #573B36",
"j  c #563229",
"k  c #682625",
"l  c #693937",
"z  c #763E3E",
"x  c #7C3E3D",
"c  c #772424",
"v  c #3F433F",
"b  c #64470D",
"n  c #714B16",
"m  c #42443E",
"M  c #554B39",
"N  c #594839",
"B  c #674939",
"V  c #724C3B",
"C  c #685138",
"Z  c #77552E",
"A  c #554216",
"S  c #363F40",
"D  c #3B3A42",
"F  c #4A3E48",
"G  c #773F40",
"H  c #354243",
"J  c #384141",
"K  c #374949",
"L  c #3C4B4B",
"P  c #3B4847",
"I  c #3E5152",
"U  c #425454",
"Y  c #4C5257",
"T  c #445C5C",
"R  c #495D5E",
"E  c #4F4E51",
"W  c #6B4942",
"Q  c #794141",
"!  c #794A47",
"~  c #665A49",
"^  c #785843",
"/  c #62585E",
"(  c #49605F",
")  c #5B6758",
"_  c #676853",
"`  c #717351",
"'  c #6F6746",
"]  c #455F61",
"[  c #4A5D60",
"{  c #575864",
"}  c #476061",
"|  c #496262",
" . c #55676B",
".. c #5A6D71",
"X. c #5C7173",
"o. c #736E64",
"O. c #6B6F77",
"+. c #8A2928",
"@. c #9E2E2E",
"#. c #8C3737",
"$. c #A83333",
"%. c #BA3636",
"&. c #C63838",
"*. c #B66E1F",
"=. c #BB711E",
"-. c #A86A1B",
";. c #875D2B",
":. c #865B32",
">. c #9F7D2F",
",. c #93712F",
"<. c #886939",
"1. c #967435",
"2. c #946328",
"3. c #A66A26",
"4. c #B26E22",
"5. c #B96F20",
"6. c #A17D2E",
"7. c #BA7121",
"8. c #BA7628",
"9. c #A64136",
"0. c #C57C1F",
"q. c #CA453E",
"w. c #C17923",
"e. c #C33F40",
"r. c #834A48",
"t. c #8D554D",
"y. c #885C47",
"u. c #975B4F",
"i. c #965B52",
"p. c #885454",
"a. c #AC5146",
"s. c #93624C",
"d. c #8C6B51",
"f. c #986956",
"g. c #99775A",
"h. c #85674D",
"j. c #A86C5B",
"k. c #B5785E",
"l. c #AD6B55",
"z. c #BB5961",
"x. c #B97A61",
"c. c #B47269",
"v. c #D35744",
"b. c #C7504C",
"n. c #E35B44",
"m. c #D96348",
"M. c #DC755A",
"N. c #CF7157",
"B. c #F26848",
"V. c #F36847",
"C. c #EB7655",
"Z. c #E86F50",
"A. c #CB6A66",
"S. c #E57A69",
"D. c #A4863C",
"F. c #B49139",
"G. c #B18E38",
"H. c #B98419",
"J. c #D7921D",
"K. c #EBA71E",
"L. c #FBB21F",
"P. c #F4AC1F",
"I. c #C78926",
"U. c #D89221",
"Y. c #D68D20",
"T. c #E39A20",
"R. c #E9A623",
"E. c #F4AD21",
"W. c #F8B020",
"Q. c #F7B020",
"!. c #A78566",
"~. c #BC846B",
"^. c #B78665",
"/. c #BA9877",
"(. c #B78758",
"). c #CA8B6E",
"_. c #C68668",
"`. c #D28B6D",
"'. c #D78969",
"]. c #C69672",
"[. c #DB9271",
"{. c #D79673",
"}. c #E39A77",
"|. c #E18E68",
" X c #D9A47C",
".X c #E4A66B",
"XX c #E4A37D",
"oX c #C68F5A",
"OX c #6E7683",
"+X c #897E84",
"@X c #7B8A97",
"#X c #85849A",
"$X c #998A9D",
"%X c #BB858A",
"&X c #9B93AE",
"*X c #9D98B2",
"=X c #8D92A7",
"-X c #A698AF",
";X c #99A2AA",
":X c #A1A3BB",
">X c #A7ACB6",
",X c #CD9198",
"<X c #DEA980",
"1X c #E6AC82",
"2X c #ECB589",
"3X c #E9B387",
"4X c #F5BC8D",
"5X c #F9BE8F",
"6X c #F0A982",
"7X c #FBC392",
"8X c #FCC795",
"9X c #BAB6D8",
"0X c #AEAFC5",
"qX c #C1B9DB",
"wX c #BCC4CF",
"eX c #CDCBD9",
"rX c #EEF0FA",
"tX c #E5D1DD",
"yX c None",
/* pixels */
"yXyXyXyXyXyXyXyXyXyXyXyXyXyXyXyXyXyXyXyXyXyXyXyXyXyXyXyXyXyXyXyXyXyXyXyXyXyXyXyXyXyXyXyXyXyXyXyXyXyXyXyXyXyXyXyXyXyXyXyXyXyXyXyX",
"yXyXyXyXyXyXyXyXyXyXyXyXyXyXyXyXyXyXyXyXyXyXyXyXyXyXyXyXyXyXyXyXyXyXyXyXyXyXyXyXyXyXyXyXyXyXyXyXyXyXyXyXyXyXyXyXyXyXyXyXyXyXyXyX",
"yXyXyXyXyXyXyXyXyXyXyXyXyXyXyXyXyXyXyXyXyXyXyXyXyXyXyXyXyXyXyXyXyXyXyXyXyXyXyXyXyXyXyXyXyXyXyXyXyXyXyXyXyXyXyXyXyXyXyXyXyXyXyXyX",
"yXyXyXyXyXyXyXyXyXyXyXyXyXyXyXyXyXyXyXyXyXyXyXyXyXyXyXyXyXyXyXyXyXyXyXyXyXyXyXyXyXyXyXyXyXyXyXyXyXyXyXyXyXyXyXyXyXyXyXyXyXyXyXyX",
"yXyXyXyXyXyXyXyXyXyXyXyXyXyXyXyXS J S S t v e v J J v t v t H S v S H t J v S S v v S H t H v J yXyXyXyXyXyXyXyXyXyXyXyXyXyXyXyX",
"yXyXyXyXyXyXyXyXyXyXyXyXyXyXyXJ J t J J H H H v J t t t H S S t S H t v S S S S t v S S J S S t J yXyXyXyXyXyXyXyXyXyXyXyXyXyXyX",
"yXyXyXyXyXyXyXyXyXyXyXyXyXyXyXJ t v S S H t v v E v v v v v v v v v v v v v v v v v t t J J v H J yXyXyXyXyXyXyXyXyXyXyXyXyXyXyX",
"yXyXyXyXyXyXyXyXyXyXyXyX  o 6 H U U U U U I ( ' ,.>.>.>.>.>.>.>.>.>.>.>.>.>.6.1.' E U U U U U U H 6 o   yXyXyXyXyXyXyXyXyXyXyXyX",
"yXyXyXyXyXyXyXyXyXyXyX      5 H | | R } } ] ) D.R.L.Q.Q.Q.Q.Q.Q.E.E.Q.Q.P.W.L.R.D.) ] } ( } } ( H 5       yXyXyXyXyXyXyXyXyXyXyX",
"yXyXyXyXyXyXyXyXyXyXyX      5 H } } ( ( ( R _ D.R.L.L.W.Q.W.W.W.W.W.W.W.W.W.L.R.D._ } } ( ( } } H 5       yXyXyXyXyXyXyXyXyXyXyX",
"yXyXyXyXyXyXyXyXyXyXyX      5 H ] } ) ' <.<.1.I.R.Q.W.W.Q.W.Q.Q.Q.W.W.W.W.L.L.R.F.,.h.' ' { | ] H 5       yXyXyXyXyXyXyXyXyXyXyX",
"yXyXyXyXyXyXyXyXyXyXyX      5 H ] [ _ <.4.4.8.U.E.Q.W.W.Q.W.Q.Q.W.W.W.W.W.W.L.R.J.0.=.=.<._ | | H 5       yXyXyXyXyXyXyXyXyXyXyX",
"yXyXyXyXyXyXyXyXyXyXyX    o 5 H } } _ <.4.=.0.U.R.W.Q.Q.Q.Q.Q.Q.W.Q.Q.W.W.Q.W.P.U.0.=.5.<._ | ] H 5       yXyXyXyXyXyXyXyXyXyXyX",
"yXyXyXyXyXyXyX    o % 5 6 7 e L } } _ D.U.T.T.R.Q.Q.W.W.Q.L.Q.Q.W.W.W.W.W.W.W.E.K.T.T.Y.6._ ] | I e 7 6 5 % o     yXyXyXyXyXyXyX",
"yXyXyXyXyXyX      o * w J J L T } } ` F.E.W.W.W.W.W.W.Q.W.W.Q.W.Q.Q.W.Q.Q.W.Q.W.L.L.L.R.F.` [ ] T L J J w * o       yXyXyXyXyXyX",
"yXyXyXyXyXyX        * w J J L U } } ` F.E.W.W.W.Q.Q.W.W.Q.W.W.W.W.W.W.W.W.W.W.P.P.L.L.E.F.` | | U L J J w *         yXyXyXyXyXyX",
"yXyXyXyXyXyX      o & w J J P U R ] ` F.Q.L.Q.Q.L.L.Q.Q.Q.L.W.Q.Q.W.W.W.Q.W.Q.W.W.W.W.E.F.` } } T L J J w * o       yXyXyXyXyXyX",
"yXyXyXyXyXyX      o * w J J U T } } ` F.Q.L.W.W.L.L.L.L.Q.Q.Q.Q.W.W.Q.W.W.W.W.W.W.E.L.E.F.` } ] U L J J w * o       yXyXyXyXyXyX",
"yXyXyXyXyXyX        * w J J L U T T _ D.K.K.E.K.K.K.K.E.E.L.Q.Q.W.Q.W.Q.W.Q.W.Q.E.W.P.P.G.` ] T U L J J w * o       yXyXyXyXyXyX",
"yXyXyXyXyXyX      o * w J J e 9 6 6 2 s b b b b b b b -.J.L.Q.Q.W.W.W.Q.W.W.W.P.T.Y.Y.I.,.~ I L L P J J w *         yXyXyXyXyXyX",
"yXyXyXyXyXyX      o i w v v 9 %             o       O b I.W.W.W.W.L.L.L.L.W.W.P.U.w.*.4.;.M S t v H J J w * o       yXyXyXyXyXyX",
"yXyXyXyXyXyX. . . O 5 w t y 9 % o   o o o o o o o   O b H.P.K.K.R.R.E.K.K.P.Q.R.U.0.=.4.;.M S H J t J J u 7 % X . X yXyXyXyXyXyX",
"yXyXyX    : C d.!.d.N 0 $ $ * 6 6 9 9 r e v v r H H e A A b b n Z ' <.,.8.I.Y.Y.w.7.=.4.;.M J S S J J S E ~ g.g.d.C :     yXyXyX",
"yXyX      1 h.3X8X3Xd.2     $ 9 v v K I ] } } ] | | I e %     % 9 t S M ;.4.*.=.=.5.7.4.;.M v J J J S S ~ !.3X8X3Xh.>       yXyX",
"yXyX      > h.<X8X3Xd.1     $ 9 v H K I I ( T T } | ( v $     # 9 v v m Z -.-.*.4.*.7.4.;.N S S v t t y E !.3X7X<Xh.1       yXyX",
"yXyX      : ^ `.6X{.y.1     i v I I K e 6 5 9 H I | T r #     % 9 v v v M C C Z 2.4.=.4.;.N H S r 7 $ % q d.{.6X].^ ,       yXyX",
"yXyX      : V _.}.`.V 1     i H ( | K 6 o   X w T } T r %     % 7 v v v e v H v Z 3.w.4.;.M H H 9 %     1 V ).}._.V ,       yXyX",
"yXyX      : V k.'.k.V :     i H | | K 6 o   X 9 I ] T e = . . > w m v v J v v M Z 3.=.4.;.M S t 9 * .   2 V x.).k.V :       yXyX",
"yXyXyXyXyXyX2 j f f > .     i K | | K 6     X 6 H I P M n n n n ;.;.;.;.;.;.;.2.3.4.7.4.Z g 8 S u d d d d j f j f 2 yXyXyXyXyXyX",
"yXyXyXyXyXyX                i H | | K 6     . 5 e H v Z 2.=.7.7.=.*.=.*.=.7.7.7.7.7.=.4.Z D 8 8 g F x x h < +       yXyXyXyXyXyX",
"yXyXyXyXyXyX        . . O O 7 v T T K 9 = . @ 9 w e v C 3.w.8.w.w.7.8.8.4.-.-.4.7.8.w.4.:.h D D F G r.r.l 2 .       yXyXyXyXyXyX",
"yXyXyXyXyXyX      . d V s.s.B u i i u ^ !.!.d.N 5 # 1 C (..X.X.X.X.X.XoX:.s 3 s <.oX.X.X_.c.f.f.f.k.c.A.u.j +       yXyXyXyXyXyX",
"yXyXyXyXyXyX      O N k.}.[.y.d     q g.4X8X<X^ =   O C ].8X7X7X5X7X8X].W O   * ' <X8X5X3X}.[.[.[.{.{.}.k.N .       yXyXyXyXyXyX",
"yXyXyXyXyXyXyX    O j l.`._.y.f O O f g.3X8X<X^ :   # W ].7X5X5X7X5X7X].C X   : ^  X7X4X3X{.`.[.`.`.`.`.l.l .     yXyXyXyXyXyXyX",
"yXyXyXyXyXyXyXyXyXyX2 d d f l Z s.s.j._. X1X_.C @   X C ].8X5X7X5X5X8X].C O   @ V _.6X}.}.[.[.[.A.l.i.i.t.B yXyXyXyXyXyXyXyXyXyX",
"yXyXyXyXyXyXyXyXyXyXyX      f f.[.{.[.[.[.[.x.l @   X C ].7X7X7X7X7X7X].C O   @ l x.[.[.[.[.[.`.~.u.G G Q yXyXyXyXyXyXyXyXyXyXyX",
"yXyXyXyXyXyXyXyXyXyXyX+   + j f.[.[.'.'.`.`.x.V > . : ^ ].4X4X4X4X5X5X].^ : o > V k.`.`.'.'.[.'.x.u.Q r.x yXyXyXyXyXyXyXyXyXyXyX",
"yXyXyXyXyXyXyX    + p a +.+.9.m.C.C.m.l.i.t.u.u.s.s.f.k.{.XX}.XX}.XX}.`.x.s.s.s.u.i.u.u.l.N.C.Z.m.b.$.$.#.p +     yXyXyXyXyXyXyX",
"yXyXyXyXyXyX      + p @.q.&.q.n.B.B.m.a.G G r.l.'.}.[.[.[.[.[.[.[.[.[.[.}.[.}.`.j.r.z Q 9.v.V.V.n.q.&.&.@.p +       yXyXyXyXyXyX",
"yXyXyXyXyXyX: @ @ , j $.q.q.q.n.B.B.m.a.r.! p.j.~.).).).).).).].).).).).).).).~.j.p.! p.a.m.V.V.n.v.q.q.$.k , @ @ : yXyXyXyXyXyX",
"yXyXyXG G r.f.!.!.^.^._.'.N.M.Z.B.B.A.%X$X&X$X#XO.` o.o.o.o.o.o.o.o.o.o.` o.o.O.#X$X&X$X,XN.V.V.Z.M.N.'._.^.!.^.!.f.r.G Q yXyXyX",
"yXyXG V z t._.2X8X7X2XXX X X|.C.B.B.S.,X9X9X>X#X .} | } ] ] I T } ( } T ( ( I  .@X:X9X0X,XS.V.V.C.|. X XXX2X7X8X2X_.t.z z Q yXyX",
"yXyXQ z G t.~.2X7X5X2X X X X'.M.m.m.N.%X*X*X=XOX[ I Y [  .X.X. .| } } | | X. .O.#X-X0X-X,XA.m.m.M.|. X XXX2X5X7X2X~.t.G z Q yXyX",
"yXyXQ z G t.~.2X8X5X4X4X4X3X].f.W W W g D y w 9 * % 7  .;XwXwX;X@X} ( X.=XwXwXqX%XA.A.z.i.! W W d.].3X4X2X7X5X7X2X~.t.G z Q yXyX",
"yXyXQ G G t.~.2X7X7X7X8X8X4X/._ H S 8 & o           % { wXrXrX9X@X( ( @X>XtXrXtX,Xz.&.%.#.F S H _ /.7X8X8X8X7X7X2X~.t.z V G yXyX",
"yXyXQ G z t.x.<X3X3X1X<X<X<X!.~ e w r 4 O + + + + + , / :XeXeX*XX.I I X.;XeXtXtX,Xb.&.%.#.h r y ~ !. X<X X1X3X2X1Xx.t.G G G yXyX",
"yXyXyXyXyXyXi.f.f.i.V h q f q * # # < p +.@.+.+.@.+.+.l g J D D 7 & $ q ! c.A.A.b.e.&.%.c < # # * 2 q u h W i.i.f.i.yXyXyXyXyXyX",
"yXyXyXyXyXyXG G G l d %             ; c %.&.&.q.&.&.%.a -   X # o     - a %.&.&.&.&.&.&.c -         o o O q G G G G yXyXyXyXyXyX",
"yXyXyXyXyXyXyXQ Q z q +       o X X , k @.$.$.$.$.$.@.a 8 * & 8 i 8 * 4 k @.$.$.$.$.$.@.k , X X o       + q z Q Q yXyXyXyXyXyXyX",
"yXyXyXyXyXyXyXyXyXyX:       & r L K t q ; ; ; ; - - < F OX+X+X+XOX+X+XOXF ; - ; ; ; ; < q t K P r $     o @ yXyXyXyXyXyXyXyXyXyX",
"yXyXyXyXyXyXyXyXyXyXyX      5 H | | K 5             O Y =X9X9X9XqX9X9X=XY O             5 K | | K 6       yXyXyXyXyXyXyXyXyXyXyX",
"yXyXyXyXyXyXyXyXyXyXyX      5 H T ] K 9 # o X X X o & Y @X:X:X0X:X:X:X+XY & X X . o o # 6 P R U v i       yXyXyXyXyXyXyXyXyXyXyX",
"yXyXyXyXyXyXyXyXyXyXyX      & r H K D e r 8 S D K K I [  .OXX.X.OX] OXI U L K K S w r w e S L U r $       yXyXyXyXyXyXyXyXyXyXyX",
"yXyXyXyXyXyXyXyXyXyXyX      % 9 S S S S S S S I ] | | | } I ( U D D D D U } | } U H t t t D t t 9 #       yXyXyXyXyXyXyXyXyXyXyX",
"yXyXyXyXyXyXyXyXyXyXyX      * t Y Y Y Y Y Y { Y U I I I } } } U I D S S L I I L Y Y Y Y Y Y Y Y v &       yXyXyXyXyXyXyXyXyXyXyX",
"yXyXyXyXyXyXyXyXyXyXyX    o y O.*X*X*X&X*X*X+X{ 8 # $ i yXyXyXyXyXyXyXyX* % # 6 { #X*X*X*X*X*X*XO.y       yXyXyXyXyXyXyXyXyXyXyX",
"yXyXyXyXyXyXyXyXyXyXyX    o D #X9XqXqX9XqXqX:X{ &       yXyXyXyXyXyXyXyX      i { :XqXqX9XqXqX9X#XD o     yXyXyXyXyXyXyXyXyXyXyX",
"yXyXyXyXyXyXyXyXyXyXyX      F OX&X*X&X&X&X&X+XY &     yXyXyXyXyXyXyXyXyXyX    & { +X*X&X&X&X&X*XOXD       yXyXyXyXyXyXyXyXyXyXyX",
"yXyXyXyXyXyXyXyXyXyXyXyXyXyXyX7 8 8 8 8 8 8 8 7 yXyXyXyXyXyXyXyXyXyXyXyXyXyXyXyX7 8 8 8 8 8 8 8 4 yXyXyXyXyXyXyXyXyXyXyXyXyXyXyX",
"yXyXyXyXyXyXyXyXyXyXyXyXyXyXyX                yXyXyXyXyXyXyXyXyXyXyXyXyXyXyXyXyXyX                yXyXyXyXyXyXyXyXyXyXyXyXyXyXyX",
"yXyXyXyXyXyXyXyXyXyXyXyXyXyXyX                yXyXyXyXyXyXyXyXyXyXyXyXyXyXyXyXyXyX                yXyXyXyXyXyXyXyXyXyXyXyXyXyXyX",
"yXyXyXyXyXyXyXyXyXyXyXyXyXyXyXyXyXyXyXyXyXyXyXyXyXyXyXyXyXyXyXyXyXyXyXyXyXyXyXyXyXyXyXyXyXyXyXyXyXyXyXyXyXyXyXyXyXyXyXyXyXyXyXyX",
"yXyXyXyXyXyXyXyXyXyXyXyXyXyXyXyXyXyXyXyXyXyXyXyXyXyXyXyXyXyXyXyXyXyXyXyXyXyXyXyXyXyXyXyXyXyXyXyXyXyXyXyXyXyXyXyXyXyXyXyXyXyXyXyX",
"yXyXyXyXyXyXyXyXyXyXyXyXyXyXyXyXyXyXyXyXyXyXyXyXyXyXyXyXyXyXyXyXyXyXyXyXyXyXyXyXyXyXyXyXyXyXyXyXyXyXyXyXyXyXyXyXyXyXyXyXyXyXyXyX"
};
