/* XPM */
static char *result[] = {
/* columns rows colors chars-per-pixel */
"64 64 221 2 ",
"   c #000000",
".  c #0C0805",
"X  c #050909",
"o  c #0B0D0D",
"O  c #090507",
"+  c #130905",
"@  c #170B0B",
"#  c #0E1212",
"$  c #121515",
"%  c #1A1D1E",
"&  c #151717",
"*  c #0D0C11",
"=  c #2C1B08",
"-  c #2A160A",
";  c #391A13",
":  c #2E1511",
">  c #3D2B08",
",  c #372607",
"<  c #33251B",
"1  c #3B2916",
"2  c #27211E",
"3  c #1E1E2A",
"4  c #1D2223",
"5  c #252B2B",
"6  c #292F2F",
"7  c #262529",
"8  c #3B2C22",
"9  c #342C28",
"0  c #252536",
"q  c #2B2A33",
"w  c #2A2A39",
"e  c #272738",
"r  c #312E3B",
"t  c #312F37",
"y  c #263232",
"u  c #2C3233",
"i  c #2D313B",
"p  c #2D393A",
"a  c #363E3E",
"s  c #383F3F",
"d  c #343438",
"f  c #39302B",
"g  c #491D1B",
"h  c #43280A",
"j  c #4D3117",
"k  c #5A2828",
"l  c #443937",
"z  c #4D342D",
"x  c #6A2A2A",
"c  c #743C3C",
"v  c #783D3D",
"b  c #723738",
"n  c #6C3535",
"m  c #683E12",
"M  c #3A403F",
"N  c #74520F",
"B  c #694012",
"V  c #554B39",
"C  c #5A4D38",
"Z  c #524934",
"A  c #685536",
"S  c #7A5A31",
"D  c #76683D",
"F  c #353E40",
"G  c #363640",
"H  c #2F3B41",
"J  c #443F40",
"K  c #6A3F40",
"L  c #354141",
"P  c #394141",
"I  c #364A4A",
"U  c #3D4A4B",
"Y  c #3B4748",
"T  c #3F5656",
"R  c #3F5C63",
"E  c #484B48",
"W  c #56544A",
"Q  c #415354",
"!  c #445959",
"~  c #485E5F",
"^  c #495554",
"/  c #555857",
"(  c #684646",
")  c #7B4242",
"_  c #7A4649",
"`  c #744344",
"'  c #795147",
"]  c #7A5755",
"[  c #6C5752",
"{  c #656358",
"}  c #717352",
"|  c #445E62",
" . c #476162",
".. c #496161",
"X. c #4C6969",
"o. c #686C72",
"O. c #6B5E5B",
"+. c #8F342C",
"@. c #AC3735",
"#. c #BF3436",
"$. c #C13537",
"%. c #865F11",
"&. c #8D5518",
"*. c #885517",
"=. c #9B5F1B",
"-. c #896112",
";. c #8B6617",
":. c #B56E1F",
">. c #B96F1F",
",. c #BB711F",
"<. c #A57515",
"1. c #895E2C",
"2. c #B34D36",
"3. c #BD5239",
"4. c #996428",
"5. c #976328",
"6. c #98742C",
"7. c #846D33",
"8. c #9B6B30",
"9. c #A76A24",
"0. c #B66F21",
"q. c #B86F20",
"w. c #BB7220",
"e. c #B77020",
"r. c #A17D2F",
"t. c #C2751F",
"y. c #C5423F",
"u. c #CE443C",
"i. c #D1463D",
"p. c #C37921",
"a. c #814C4D",
"s. c #8D534B",
"d. c #945A4F",
"f. c #875556",
"g. c #945C50",
"h. c #936D51",
"j. c #986659",
"k. c #8D6F53",
"l. c #A5785B",
"z. c #A5604D",
"x. c #885B63",
"c. c #9B6962",
"v. c #987165",
"b. c #A57A64",
"n. c #B47F63",
"m. c #A05E4B",
"M. c #ED6447",
"N. c #F86B4A",
"B. c #FF704D",
"V. c #D57D64",
"C. c #BD8618",
"Z. c #A78B3D",
"A. c #A6893C",
"S. c #BE8225",
"D. c #9F8133",
"F. c #D7921E",
"G. c #FBB11F",
"H. c #F7AF1F",
"J. c #C78623",
"K. c #D38A20",
"L. c #CB982A",
"P. c #D39728",
"I. c #EBA320",
"U. c #F5AF21",
"Y. c #F9B120",
"T. c #FAB320",
"R. c #E3A225",
"E. c #8E8046",
"W. c #908146",
"Q. c #A68164",
"!. c #B6896B",
"~. c #B7947C",
"^. c #A88770",
"/. c #95827B",
"(. c #C98A6C",
"). c #D1896D",
"_. c #C7946F",
"`. c #CB9672",
"'. c #D49C75",
"]. c #DA9A77",
"[. c #E19976",
"{. c #DBA37A",
"}. c #D9A177",
"|. c #E1A67C",
" X c #E4AA7E",
".X c #897C93",
"XX c #8D778B",
"oX c #89839D",
"OX c #9A8699",
"+X c #B89989",
"@X c #AF948D",
"#X c #8E88A2",
"$X c #948BA5",
"%X c #9A92B3",
"&X c #A894AC",
"*X c #AA99B4",
"=X c #A38EA7",
"-X c #A9A2BF",
";X c #BEA18F",
":X c #DDA985",
">X c #D4AD99",
",X c #E2AE89",
"<X c #E6B593",
"1X c #D7B7A3",
"2X c #E6BAA3",
"3X c #F2C6A9",
"4X c #F5C8AB",
"5X c #F3CAB4",
"6X c #FBD3BB",
"7X c #EFC2A5",
"8X c #B3ACC8",
"9X c #BCB4D5",
"0X c #BEB7D8",
"qX c #AFA9C4",
"wX c #C4BCDE",
"eX c #C4BFE2",
"rX c #FFDBC2",
"tX c #FED7C0",
"yX c #FFE2C7",
"uX c #C5C0E3",
"iX c None",
/* pixels */
"iXiXiXiXiXiXiXiXiXiXiXiXiXiXiXiXiXiXiXiXiXiXiXiXiXiXiXiXiXiXiXiXiXiXiXiXiXiXiXiXiXiXiXiXiXiXiXiXiXiXiXiXiXiXiXiXiXiXiXiXiXiXiXiX",
"iXiXiXiXiXiXiXiXiXiXiXiXiXiXiXiXiXiXiXiXiXiXiXiXiXiXiXiXiX  iXiXiXiXiXiXiXiXiXiXiXiX  iXiXiXiXiXiXiXiXiXiXiXiXiXiXiXiXiXiXiXiXiX",
"iXiXiXiXiXiXiXiXiXiXiXiXiXiXiXiXiXiXiXiXiXiXiXiXiXiXiXiX                                iXiXiXiXiXiXiXiXiXiXiXiXiXiXiXiXiXiXiXiX",
"iXiXiXiXiXiXiXiXiXiXiXiXiXiXiXiXiXiXiXiXiXiXiXiXiXiXiXiX                                iXiXiXiXiXiXiXiXiXiXiXiXiXiXiXiXiXiXiXiX",
"iXiXiXiXiXiXiXiXiXiXiXiXiXiXiXiXiX                    # 4 p p y y y y y y y y 5 4 4 4 % o     iXiXiXiXiXiXiXiXiXiXiXiXiXiXiXiXiX",
"iXiXiXiXiXiXiXiXiXiXiXiXiXiXiXiX                      $ I X. . . ........... .! I M M 6 o       iXiXiXiXiXiXiXiXiXiXiXiXiXiXiXiX",
"iXiXiXiXiXiXiXiXiXiXiXiXiXiXiXiX                      & I  . ....... ....... .! E M M u #       iXiXiXiXiXiXiXiXiXiXiXiXiXiXiXiX",
"iXiXiXiXiXiXiXiXiXiXiXiXiX    , N -.-.%.%.-.%.-.-.%.%.;.D.Z.Z.Z.Z.Z.Z.Z.Z.Z.Z.Z.D.r.D.6.;.-.-.N ,     iXiXiXiXiXiXiXiXiXiXiXiXiX",
"iXiXiXiXiXiXiXiXiXiXiXiX      > C.G.G.G.G.G.Y.T.T.T.T.T.G.H.G.G.T.T.T.Y.G.G.G.G.G.G.G.Y.T.T.T.C.>       iXiXiXiXiXiXiXiXiXiXiXiX",
"iXiXiXiXiXiXiXiXiXiXiXiX      > J.G.G.G.G.G.Y.G.Y.Y.T.Y.Y.Y.Y.Y.Y.Y.Y.Y.H.U.Y.Y.Y.Y.Y.Y.Y.T.T.J.>       iXiXiXiXiXiXiXiXiXiXiXiX",
"iXiXiXiXiXiXiXiXiX    , N ;.-.<.R.G.Y.U.T.T.T.U.Y.Y.Y.U.Y.Y.U.H.Y.U.Y.Y.Y.Y.Y.Y.Y.U.Y.U.Y.T.T.C.>       iXiXiXiXiXiXiXiXiXiXiXiX",
"iXiXiXiXiXiXiXiX      > J.T.T.T.Y.U.G.Y.G.T.H.U.Y.Y.H.Y.Y.Y.T.H.Y.Y.Y.Y.Y.H.U.U.U.G.U.G.Y.T.T.C.>       iXiXiXiXiXiXiXiXiXiXiXiX",
"iXiXiXiXiXiXiXiX      > C.G.G.G.Y.Y.U.Y.Y.H.Y.Y.Y.Y.U.H.H.T.U.U.U.Y.Y.Y.U.Y.Y.Y.G.U.Y.U.Y.Y.T.C.>       iXiXiXiXiXiXiXiXiXiXiXiX",
"iXiXiXiXiXL P p 5 4 4 Z J.G.G.G.Y.H.H.Y.Y.U.Y.H.Y.Y.Y.Y.T.T.H.T.Y.H.Y.Y.H.Y.Y.Y.U.G.U.Y.G.Y.G.F.&.B m m -     iXiXiXiXiXiXiXiXiX",
"iXiXiXiXL M M P P L L A L.G.G.G.Y.Y.Y.Y.Y.U.Y.U.U.Y.Y.U.H.G.G.H.G.H.G.Y.H.G.H.Y.G.G.G.G.Y.Y.Y.I.J.w.w.&.=       iXiXiXiXiXiXiXiX",
"iXiXiXiXP P P M L L M A L.G.G.G.Y.U.H.U.Y.H.Y.Y.H.Y.Y.H.U.U.U.H.U.U.U.U.U.U.Y.U.U.U.U.U.Y.Y.Y.I.p.e.w.&.=       iXiXiXiXiXiXiXiX",
"P M s Y E Q Q Q T T Q W D 7.7.6.J.K.K.F.U.Y.Y.U.H.G.G.I.Z.E.E.E.W.W.E.E.W.W.W.W.W.E.E.D.J.K.K.J.p.w.w.&.=       iXiXiXiXiXiXiXiX",
"P P s Y ! ..........~ Q I F H V 5.0.,.p.I.Y.Y.Y.G.H.G.L.} R R ~ | | | | | | | |  .R R { 8.,.,.:.w.,.w.&.=       iXiXiXiXiXiXiXiX",
"M P M I ! ............! U F F V 5.w.w.p.I.H.Y.U.U.U.H.L.} ............~ ..~ ..~ | | ..{ 8.w.:.e.e.w.w.&.=       iXiXiXiXiXiXiXiX",
"P M M I ! ........~ ..! Y a F V 5.w.w.w.J.K.K.S.8.7.7.} ........~ ....~ ......! T U E E C A A S 9.w.w.&.=       iXiXiXiXiXiXiXiX",
"M M M Y ! ....~ ......! Y F F V 5.,.w.e.>.>.,.5.V H H I ! ....................! Y M M M P L H V 5.p.p.&.-       iXiXiXiXiXiXiXiX",
"M M M Y ! ............! Y s F C 4.,.w.:.0.0.w.5.V H F Y ! ..| ..~ ~ ~ ........! Y M M M M P L V 5.>.0.*.=       iXiXiXiXiXiXiXiX",
"M M s Y ! ....! E I Y W S 1.1.5.9.,.>.9.S A A C Z H P P Y E E U U U U U I U U U L M M M M P M d j h h , +       iXiXiXiXiXiXiXiX",
"P M s I ! ....! Y a a C 4.t.t.,.w.,.>.5.V F F G L M P P F P s s M M M M M M M P L L M M P P P u X               iXiXiXiXiXiXiXiX",
"M P a Y ! ....! U P P V 1.0.:.9.e.,.,.5.V F P F P P P s F P P s P M P M P P P a a a a a a a P 6 $               iXiXiXiXiXiXiXiX",
"iXiXiXY E Y U U Q Q ! Y j > > m =.w.p.4.V F F P P F s P P F s P M P P a a P P u 4 $ & & & & & % 7 5 5 % X       iXiXiXiXiXiXiXiX",
"iXiXiXiXs s s Y ! ....I $     = &.p.p.5.C F P F P M P s P P L L L P a P F P P u o             o 6 Y Y u $       iXiXiXiXiXiXiXiX",
"iXiXiXiXs s s Y ! ....I $     = *.:.:.5.V F F P s F F F F F F F a P P F F P P u $             $ u M P u o       iXiXiXiXiXiXiXiX",
"iXiXiXiXiXiXiXY E U U p $     . = h > 1 9 G r w i i i i i i e w i w G w i w i u 6 5 5 5 5 5 5 6 d P Y 6 o       iXiXiXiXiXiXiXiX",
"iXiXiXiXiXiXiXiXM M P 6 o             X 3 e e 0 0 0 0 0 0 0 0 0 e e e e 0 0 0 w d a F P P P P P P P M u #       iXiXiXiXiXiXiXiX",
"iXiXiXiXiXiXiXiXP F F d & . . . O . . # 3 0 0 0 r t t i w i w H w e e w w G r G P E Y Y P M M M a a M 6 *       iXiXiXiXiXiXiXiX",
"iXiXiXiXiXiXiXiXC K K ( s.k.k.h.h.h.h.' 7 X * 9 ] b.b.b.b.b.b.k.E p G | v.;X+X@X^.Q.Q.k.W P M u % $ $ $ iXiXiXiXiXiXiXiXiXiXiXiX",
"iXiXiXiXiXiXiXiX) ) v d.(.,X,X|.{. X{.l.<     < l. X{.{.{.{. X!.W G H { >XrXrX5X,X{.|.!.W P P u o       iXiXiXiXiXiXiXiXiXiXiXiX",
"iXiXiXiXiXiXiXiXv v K d.!.].).].{.{.{.Q.<     < l. X:X{.{.{.{.^.[ P P } >XtX6X7X,X}.{.!.W a a 6 o       iXiXiXiXiXiXiXiXiXiXiXiX",
"iXiXiXiXiXiXiXiXiXiXiXiXd.d.g.n.>X4X4X~.f     f ~.4X3X<X:X{.}.`.!.Q.Q.~.2X6X6X7X:X{.{.b.z # # # iXiXiXiXiXiXiXiXiXiXiXiXiXiXiXiX",
"iXiXiXiXiXiXiXiXiXiXiXiXb v b j.<XyX6X>Xf     f ;XtXtX4X:X}.}.}.{.{.{.,X5X6X6X5X,X{.{.l.<       iXiXiXiXiXiXiXiXiXiXiXiXiXiXiXiX",
"iXiXiXiXiXiXiXiXiXiXiXiX` K K c.>X5X5X+Xl   O z ;X6X6X7X:X}.}.}.}.}.'.:X2X5X5X2X:X'.'.l.f X O * iXiXiXiXiXiXiXiXiXiXiXiXiXiXiXiX",
"iXiXiXiXiXiXiXiXiXiXiXiXiXiXiXiXj.c.c.c.l.h.h.Q.'.,X,X:X{.{.}.}.}.}.{.`.b.c.c.j.j.g.d.j.XX.X.Xo.5       iXiXiXiXiXiXiXiXiXiXiXiX",
"iXiXiXiXiXiXiXiXiXiXiXiXiXiXiXiXc n b d.(. X,X{.{.}.}.}.{.{.{.{.{.:X|.(.s.c c c c b b x.*XwXwX#Xq       iXiXiXiXiXiXiXiXiXiXiXiX",
"iXiXiXiXiXiXiXiXiXiXiXiXiXiXiXiX_ _ _ g.!.'.'.'.`.'.'.`.`._.`.`._._._.n.s.c c ) _ _ _ x.&X9XwX#Xt     O iXiXiXiXiXiXiXiXiXiXiXiX",
"iXiXiXiXiXiXiXiXiXiXiXiXiXiXiXiX.XXX.XXXj.s.d.d.d.g.g.a.z j 8 8 8 8 8 z x x x _ XX&X=X&X8XiXiXiXiXiXiXiXo       iXiXiXiXiXiXiXiX",
"iXiXiXiXiXiXiXiXiXiXiXiXiXiXiXiX%X%X*X.X] K +.K ) K ) k *             O g x x a.&XwXwXwXiXiXiXiXiXiXiXiXo       iXiXiXiXiXiXiXiX",
"iXiXiXiXiXiXiXiXiXiXiXiXiXiXiXiX%X%X%X.Xx._ K _ K c K k : + + + + + + - g k k _ =X9X8XwXiXiXiXiXiXiXiXiX*       iXiXiXiXiXiXiXiX",
"iXiXiXiXiXiXiXiXiXiXiXiXiXiXiXiX%X%X%X$X.XiXiX( ; & @ g +.2.2.2.2.2.2.+.; + + l .X8XwX8XiXiXiXiXf.a.' n @       iXiXiXiXiXiXiXiX",
"iXiXiXiXiXiXiXiXiXiXiXiXiXiXiXiX%X%X%X*XiXiXiXiXX     ; 3.B.B.B.N.B.B.y.;     q .XwX0X0XiXiXiXiX_ K +.z -       iXiXiXiXiXiXiXiX",
"iXiXiXiXiXiXiXiXiXiXiXiXiXiXiXiX#X.X#X#XiXiXiXiX@ O O ; 2.M.M.M.M.M.M.2.;     q .X9XqXqXiXiXiXiXf._ ] K &       iXiXiXiXiXiXiXiX",
"iXiXiXiXiXiXiXiXiXiXiXiXiXiXiXiX0 3 7 r iXiXiXiXk g g x @.i.u.$.u.u.i.+.:     % | o..Xo.] a._ x.OX*X*XXX7       iXiXiXiXiXiXiXiX",
"iXiXiXiXiXiXiXiXiXiXiXiXiXiXiXiX    O @ iXiXiXiXb x x +.@.$.#.#.#.#.$.+.-     & F | R ~ ( v v x.*XuXuX.Xq       iXiXiXiXiXiXiXiX",
"iXiXiXiXiXiXiXiXiXiXiXiXiXiXiXiX      o iXiXiXiXx k k x @.y.y.y.u.$.$.+.:     $ L R ! ^ ( ` ` ] $X-X-X.Xq       iXiXiXiXiXiXiXiX",
"iXiXiXiXiXiXiXiXiXiXiXiXiXiXiXiXiXiXiXiXo o o * @ @ + g z.V.V.V.V.V.).m.;     X # $ $ 4 U / / ^ d q q 7 iXiXiXiXiXiXiXiXiXiXiXiX",
"iXiXiXiXiXiXiXiXiXiXiXiXiXiXiXiXiXiXiXiX              < l.].].].[.[.[.l.<             $ I X.X.I #       iXiXiXiXiXiXiXiXiXiXiXiX",
"iXiXiXiXiXiXiXiXiXiXiXiXiXiXiXiXiXiXiXiX        X X   8 z.).).).).).).j.8 X X X       # L ! ! L $       iXiXiXiXiXiXiXiXiXiXiXiX",
"iXiXiXiXiXiXiXiXiXiXiXiXiXiXiXiXiXiXiXiX      # p I I ^ ' s.s.s.s.s.s.' ^ I I p #     X # # $ # iXiXiXiXiXiXiXiXiXiXiXiXiXiXiXiX",
"iXiXiXiXiXiXiXiXiXiXiXiXiXiXiXiXiXiXiXiX      & I X.X./ ( b b b c c K ` / X.X.T &               iXiXiXiXiXiXiXiXiXiXiXiXiXiXiXiX",
"iXiXiXiXiXiXiXiXiXiXiXiXiXiXiXiXiXiXiXiX      $ U ~ ~ / ] s.s.a.a.K K ( E T T L $               iXiXiXiXiXiXiXiXiXiXiXiXiXiXiXiX",
"iXiXiXiXiXiXiXiXiXiXiXiXiXiXiXiXiXiXiXiX      # u U L { @X2X2X@X[ J l d 4 # # # iXiXiXiXiXiXiXiXiXiXiXiXiXiXiXiXiXiXiXiXiXiXiXiX",
"iXiXiXiXiXiXiXiXiXiXiXiXiXiXiXiXiXiXiXiX      # u P P O.1XyXyX1XO.P P y o       iXiXiXiXiXiXiXiXiXiXiXiXiXiXiXiXiXiXiXiXiXiXiXiX",
"iXiXiXiXiXiXiXiXiXiXiXiXiXiXiXiXiXiXiXiX      o 5 u p W ~.1X1X@X/ u d 5 o       iXiXiXiXiXiXiXiXiXiXiXiXiXiXiXiXiXiXiXiXiXiXiXiX",
"iXiXiXiXiXiXiXiXiXiXiXiXiXiXiXiXiXiXiXiXiXiXiXiXo o o $ % 9 9 2 & o o o iXiXiXiXiXiXiXiXiXiXiXiXiXiXiXiXiXiXiXiXiXiXiXiXiXiXiXiX",
"iXiXiXiXiXiXiXiXiXiXiXiXiXiXiXiXiXiXiXiXiXiXiXiX                        iXiXiXiXiXiXiXiXiXiXiXiXiXiXiXiXiXiXiXiXiXiXiXiXiXiXiXiX",
"iXiXiXiXiXiXiXiXiXiXiXiXiXiXiXiXiXiXiXiXiXiXiXiX                        iXiXiXiXiXiXiXiXiXiXiXiXiXiXiXiXiXiXiXiXiXiXiXiXiXiXiXiX",
"iXiXiXiXiXiXiXiXiXiXiXiXiXiXiXiXiXiXiXiXiXiXiXiXiXiXiXiXiXiXiXiXiXiXiXiXiXiXiXiXiXiXiXiXiXiXiXiXiXiXiXiXiXiXiXiXiXiXiXiXiXiXiXiX",
"iXiXiXiXiXiXiXiXiXiXiXiXiXiXiXiXiXiXiXiXiXiXiXiXiXiXiXiXiXiXiXiXiXiXiXiXiXiXiXiXiXiXiXiXiXiXiXiXiXiXiXiXiXiXiXiXiXiXiXiXiXiXiXiX",
"iXiXiXiXiXiXiXiXiXiXiXiXiXiXiXiXiXiXiXiXiXiXiXiXiXiXiXiXiXiXiXiXiXiXiXiXiXiXiXiXiXiXiXiXiXiXiXiXiXiXiXiXiXiXiXiXiXiXiXiXiXiXiXiX"
};
