/* XPM */
static char *result[] = {
/* columns rows colors chars-per-pixel */
"64 64 219 2 ",
"   c #010000",
".  c #0A0601",
"X  c #070909",
"o  c #0A0B0B",
"O  c #0D0902",
"+  c #190B09",
"@  c #1C120B",
"#  c #0D1112",
"$  c #121415",
"%  c #161A1A",
"&  c #1A1C1D",
"*  c #171714",
"=  c #240F0D",
"-  c #271906",
";  c #281917",
":  c #391715",
">  c #321B0C",
",  c #332406",
"<  c #35240A",
"1  c #2A2117",
"2  c #191A24",
"3  c #1C2222",
"4  c #1E2929",
"5  c #242B2B",
"6  c #272A2B",
"7  c #32312F",
"8  c #232336",
"9  c #292A39",
"0  c #2B2A36",
"q  c #2E3435",
"w  c #2B3939",
"e  c #283335",
"r  c #343B3D",
"t  c #383F3F",
"y  c #373638",
"u  c #37272A",
"i  c #471C1A",
"p  c #482C0D",
"a  c #462B0C",
"s  c #5D291C",
"d  c #53231B",
"f  c #433310",
"g  c #5B2423",
"h  c #453327",
"j  c #4A3928",
"k  c #4B3C3A",
"l  c #5A3536",
"z  c #4C2C28",
"x  c #692828",
"c  c #7D2828",
"v  c #753C3C",
"b  c #793D3D",
"n  c #713637",
"m  c #673737",
"M  c #3D413E",
"N  c #74520F",
"B  c #7A4B18",
"V  c #6B4710",
"C  c #45463E",
"Z  c #594B37",
"A  c #574B34",
"S  c #7C592F",
"D  c #79403F",
"F  c #675436",
"G  c #765735",
"H  c #654C35",
"J  c #343E41",
"K  c #3C3C47",
"L  c #2E3B41",
"P  c #463E45",
"I  c #783F40",
"U  c #354141",
"Y  c #394141",
"T  c #3D4B4B",
"R  c #354549",
"E  c #3E5252",
"W  c #3D5258",
"Q  c #3E4F51",
"!  c #3E5C63",
"~  c #464545",
"^  c #594844",
"/  c #565448",
"(  c #4A4753",
")  c #425454",
"_  c #455C5C",
"`  c #465958",
"'  c #585959",
"]  c #4E5251",
"[  c #664C4B",
"{  c #7B4342",
"}  c #784445",
"|  c #64544C",
" . c #685B55",
".. c #76544D",
"X. c #59685A",
"o. c #56675B",
"O. c #4A605F",
"+. c #686356",
"@. c #6C7053",
"#. c #75684D",
"$. c #435E62",
"%. c #5B5669",
"&. c #6A5C66",
"*. c #446165",
"=. c #496161",
"-. c #4A6669",
";. c #6E676E",
":. c #8B3B30",
">. c #B53435",
",. c #C23938",
"<. c #C13637",
"1. c #855715",
"2. c #8C5418",
"3. c #A4641D",
"4. c #AA681E",
"5. c #BC711F",
"6. c #B06F1C",
"7. c #825C2E",
"8. c #9B432F",
"9. c #AE4A34",
"0. c #966329",
"q. c #8E6D32",
"w. c #AA6B24",
"e. c #A36825",
"r. c #B56F21",
"t. c #BB7321",
"y. c #B77020",
"u. c #896112",
"i. c #C3761F",
"p. c #C47721",
"a. c #834C48",
"s. c #89584A",
"d. c #865456",
"f. c #88644B",
"g. c #876B55",
"h. c #986A53",
"j. c #887557",
"k. c #A96D59",
"l. c #AE715D",
"z. c #845E6A",
"x. c #8A636D",
"c. c #9A7568",
"v. c #916C77",
"b. c #8D6D70",
"n. c #B47C63",
"m. c #B97F63",
"M. c #A9776D",
"N. c #A74C42",
"B. c #DD5542",
"V. c #CC5E50",
"C. c #E15643",
"Z. c #EC6747",
"A. c #F66B4A",
"S. c #AA8735",
"D. c #D99A1C",
"F. c #D2951B",
"G. c #CB8C1C",
"H. c #EAA61E",
"J. c #FEB31E",
"K. c #FFB81E",
"L. c #F3AD1F",
"P. c #C99529",
"I. c #D89924",
"U. c #CC9C30",
"Y. c #D28A20",
"T. c #E39C20",
"R. c #DBA128",
"E. c #E1A628",
"W. c #E9A422",
"Q. c #F4AD20",
"!. c #F9B120",
"~. c #FFBC22",
"^. c #E09F1D",
"/. c #B98568",
"(. c #B18874",
"). c #9E8776",
"_. c #CD9973",
"`. c #C5967D",
"'. c #DC9372",
"]. c #D39C75",
"[. c #D49E7B",
"{. c #CF906E",
"}. c #DBA27A",
"|. c #D8A077",
" X c #E2A87D",
".X c #E09674",
"XX c #977787",
"oX c #9E7F91",
"OX c #7D8293",
"+X c #AD8D89",
"@X c #968AA8",
"#X c #9A92B2",
"$X c #8D92A5",
"%X c #A69EBA",
"&X c #ABA1BE",
"*X c #8C8290",
"=X c #C7998A",
"-X c #DEA984",
";X c #C8AC9A",
":X c #D0A292",
">X c #E1AD8A",
",X c #E8B796",
"<X c #D9B7A2",
"1X c #E8BFA5",
"2X c #EBC0A5",
"3X c #F1C6AA",
"4X c #F5CCB4",
"5X c #FCD4BB",
"6X c #FAD3BA",
"7X c #EDC7B1",
"8X c #B5ABC9",
"9X c #BAB3D3",
"0X c #BEB7D7",
"qX c #AEA5C3",
"wX c #C2BBDB",
"eX c #C4BDE0",
"rX c #FFD9C1",
"tX c #E3D1D6",
"yX c None",
/* pixels */
"yXyXyXyXyXyXyXyXyXyXyXyXyXyXyXyXyXyXyXyXyXyXyXyXyXyXyXyXyXyXyXyXyXyXyXyXyXyXyXyXyXyXyXyXyXyXyXyXyXyXyXyXyXyXyXyXyXyXyXyXyXyXyXyX",
"yXyXyXyXyXyXyXyXyXyXyXyXyXyXyXyXyXyXyXyXyXyXyXyXyXyXyXyXyXyXyXyXyXyXyXyXyXyXyXyXyXyXyXyXyXyXyXyXyXyXyXyXyXyXyXyXyXyXyXyXyXyXyXyX",
"yXyXyXyXyXyXyXyXyXyXyXyXyXyXyXyXyXyXyXyXyXyXyXyXyXyXyXyXyXyXyXyXyXyXyXyXyXyXyXyXyXyXyXyXyXyXyXyXyXyXyXyXyXyXyXyXyXyXyXyXyXyXyXyX",
"yXyXyXyXyXyXyXyXyXyXyXyXyXyXyXyXyXyX                              yXyXyXyXyXyXyXyXyXyXyXyXyXyXyXyXyXyXyXyXyXyXyXyXyXyXyXyXyXyXyX",
"yXyXyXyXyXyXyXyXyXyXyXyXyXyXyXyXyX                                yXyXyXyXyXyXyXyXyXyXyXyXyXyXyXyXyXyXyXyXyXyXyXyXyXyXyXyXyXyXyX",
"yXyXyXyXyXyXyXyXyXyXyXyXyXyXyXyXyXo o o # # $ # # # # # # # # # # yXyXyXyXyXyXyXyXyXyXyXyXyXyXyXyXyXyXyXyXyXyXyXyXyXyXyXyXyXyXyX",
"yXyXyXyXyXyXyXyXyXyXyXyXyXyX      3 q y w R E E E E E E E E E E r #                     yXyXyXyXyXyXyXyXyXyXyXyXyXyXyXyXyXyXyXyX",
"yXyXyXyXyXyXyXyXyXyXyXyXyXyX      2 L Y R E *.=.*.*.*.*.*.*.*.-.R #                       yXyXyXyXyXyXyXyXyXyXyXyXyXyXyXyXyXyXyX",
"yXyXyXyXyXyXyXyXyXyXyXyXyX- , , < j F F / @.@.@.@.@.@.@.@.@.@.@./ 7 , , < < , , , < , < , yXyXyXyXyXyXyXyXyXyXyXyXyXyXyXyXyXyXyX",
"yXyXyXyXyXyXyXyXyXyX    . V G.^.D.I.R.^.E.^.R.R.R.E.E.E.E.E.E.E.R.^.D.D.F.F.D.D.D.F.^.F.N O     yXyXyXyXyXyXyXyXyXyXyXyXyXyXyXyX",
"yXyXyXyXyXyXyXyXyXyX      N L.~.!.~.J.J.K.K.J.J.J.J.J.J.J.J.J.J.J.K.K.K.~.~.!.~.~.~.K.J.u..     yXyXyXyXyXyXyXyXyXyXyXyXyXyXyXyX",
"yXyXyXyXyXyXyXyXyXyX    . N H.K.!.!.!.!.L.J.L.J.L.J.!.!.!.!.!.!.L.J.L.J.Q.!.!.!.Q.!.J.L.6.a , , , yXyXyXyXyXyXyXyXyXyXyXyXyXyXyX",
"yXyXyXyXyXyXyXyXyXyX    . N H.J.!.!.Q.!.L.Q.!.!.!.!.!.!.!.!.Q.!.J.!.L.!.!.!.!.!.!.!.!.Q.H.D.^.F.N .     yXyXyXyXyXyXyXyXyXyXyXyX",
"yXyXyXyXyXyXyXyXyXyX      N H.!.!.!.!.!.!.!.!.!.!.!.!.Q.!.!.L.!.!.!.!.!.!.!.!.!.!.!.!.!.J.J.~.L.N .     yXyXyXyXyXyXyXyXyXyXyXyX",
"yXyXyXyXyXyXyXyXyX- > - , u.H.!.Q.!.!.!.!.!.!.Q.Q.!.!.J.Q.!.!.!.!.!.!.!.!.Q.!.!.Q.!.!.!.!.Q.~.L.N @ X # % yXyXyXyXyXyXyXyXyXyXyX",
"yXyXyXyXyXyX      a 2.3.e.G.Q.!.J.Q.!.!.!.!.!.!.!.!.!.Q.!.!.!.!.Q.!.!.Q.!.!.L.!.!.!.Q.!.!.!.J.W.q.t w r M M Y Y yXyXyXyXyXyXyXyX",
"yXyXyXyXyXyX      p 4.p.p.Y.Q.J.J.J.!.~.!.!.J.J.J.J.J.J.J.J.J.J.J.!.Q.!.!.!.!.!.Q.!.!.!.J.J.K.Q.S.C M U M M M M yXyXyXyXyXyXyXyX",
"yXyXyXyXyXyX      p 3.t.t.Y.T.H.W.I.U.U.U.U.U.U.U.U.U.U.U.U.U.U.R.Q.J.Q.L.!.Q.!.Q.H.W.H.I.P.P.P.S ) R T T T R R R yXyXyXyXyXyXyX",
"yXyXyXyXyXyX      p 3.t.y.t.p.i.y.q.X.o.X.X.X.X.X.X.X.X.X.X.o.o.@.R.J.J.!.!.!.!.T.p.5.t.q.A C ~ ) _ _ _ _ _ _ _ ~ M M L yXyXyXyX",
"yXyXyXyXyXyX      p 3.t.y.y.5.5.r.#.=.$.$.$.$.$.$.$.$.$._ $.! ! @.R.J.J.J.~.!.J.T.5.y.r.S M L U E =.=.=.=.=.=._ Q M U M yXyXyXyX",
"yXyXyXyXyXyX      p 3.p.y.w.0.0.0.| ` W ` ` =.$.=.=.=.=.=.=.=.=.@.S.P.P.P.H.H.W.Y.5.5.r.7.C r Y E _ =.O.O.=.=._ T J t t yXyXyXyX",
"yXyXyXyXyXyX      p 3.p.r.S A M C ~ Y Y T ) O.=.=.=.=._ =._ =.*._ ~ C C G w.5.t.t.t.5.r.7.~ J Y E O.=.=.=._ =._ T Y t Y yXyXyXyX",
"yXyXyXyXyXyX      p 4.p.t.S M L M M Y t Y ) =.=.=.=.=.=.=.=.*.=.` R M M Z e.5.t.5.t.5.r.G Y L J E =.=.=.=.=.=._ T M t Y yXyXyXyX",
"yXyXyXyXyXyX      , B 2.1.H M Y M M Y Y Y T ) ` ) ` ` ) ) ) ` ` E R w U Z 7.0.0.e.r.5.r.0.H Z Z Z _ W _ _ =.=._ T Y M Y yXyXyXyX",
"yXyXyXyXyXyX      . . O O 3 M Y M U U M M Y Y Y Y Y Y U U Y Y Y Y Y J M M M M C G 4.5.5.w.6.r.w.G Y U Y ) =.=._ T Y t Y yXyXyXyX",
"yXyXyXyXyXyX              & t Y U U U U Y M t J Y M J Y M r Y J M Y Y t J J L U F w.5.5.t.t.p.t.S M J Y ) *.=._ T J t t yXyXyXyX",
"yXyXyXyXyXyX      X # $ $ & 6 e 5 e 5 5 6 r J Y J Y Y M M M t Y U J M Y M Y Y Y H w.5.y.3.1.1.B H T T T ) ) ` ) T Y t Y yXyXyXyX",
"yXyXyXyXyXyX      $ q t y 3 X   .   X   o 6 J Y M t Y J M K Y t M U U t U Y L M H w.i.y.V + . O e ) =._ T Y Y Y yXyXyXyXyXyXyXyX",
"yXyXyXyXyXyX      % r T t 3               5 t J Y M J K M M J J K J t K M J J Y F r.i.5.V .     5 =.-._ T Y t t yXyXyXyXyXyXyXyX",
"yXyXyXyXyXyX      % r Y M 5 * # # $ # # $ 5 r r r r r J r r J r y r r L w J r r k B 2.B a .   X 5 E _ ) T Y Y Y yXyXyXyXyXyXyXyX",
"yXyXyXyXyXyX      % y Y t t r r t r r r t e 9 9 8 9 9 9 8 9 9 9 9 9 9 9 9 9 9 9 2 o . . .       3 M Y Y yXyXyXyXyXyXyXyXyXyXyXyX",
"yXyXyXyXyXyX      % r Y Y Y Y Y Y M r U r 9 8 8 8 8 8 9 8 8 8 8 8 8 8 8 8 9 9 9 2               % M U M yXyXyXyXyXyXyXyXyXyXyXyX",
"yXyXyXyXyXyX      $ 6 5 5 w r Y K /  . .+. .&.&. .~ 9 q r ^ | | / [ | | P 6 2 2 6 u j h h h h j k C P k yXyXyXyXyXyXyXyXyXyXyXyX",
"yXyXyXyXyXyXyXyXyXyX    X & r U C j._._.|.,X4X4X<X;.J w ] M._.]._.].].'.h.;     j /.]._._._._.{.h.{ b D yXyXyXyXyXyXyXyXyXyXyXyX",
"yXyXyXyXyXyXyXyXyXyX      & y Y ~ j.]. X-X1X5XrX<X;.w w / /.}.}.}.[. X}.h.;     j {.>X}.}. X X}.k.a.b { yXyXyXyXyXyXyXyXyXyXyXyX",
"yXyXyXyXyXyXyXyXyXyX      * 6 4 7 g.]. X-X,X4X5X3X).+. .g.(.}.}.-X>X>X,Xc.;     A ].,X>X[./.m.n.h.{ v I yXyXyXyXyXyXyXyXyXyXyXyX",
"yXyXyXyXyXyXyXyXyXyXyXyXyXyXX   o .._.[.[.,X6X5X4X-X]._.[.|.|.[.>X3X6X6X(.1     [ <X5X4X=Xa.{ { { yXyXyXyXyXyXyXyXyXyXyXyXyXyXyX",
"yXyXyXyXyXyXyXyXyXyXyXyXyXyX    . G '. X>X1X5XrX4X,X}.}.}.|.|.|.>X3XrX5X+X3     / <XrX5X+Xa.n v yXyXyXyXyXyXyXyXyXyXyXyXyXyXyXyX",
"yXyXyXyXyXyXyXyXyXyXyXyXyX9 K ~ ( g.n././.`.:X=X=X[.}.|.|.|.|.|.-X,X3X2X(.F j j ..=X:X=Xn.a.v I yXyXyXyXyXyXyXyXyXyXyXyXyXyXyXyX",
"yXyXyXyXyXyXyXyXyXyX      %.%X9XqXv.{ D { { { { s./.|.}.|.|.|.}.|.|.}.-X}._.].].n.a.} a.} yXyXyXyXyXyXyXyXyXyXyXyXyXyXyXyXyXyXyX",
"yXyXyXyXyXyXyXyXyXyX    X ' qXeX8XXXI n v I I v a./. X X}.}.}.}.}.}.}.}.}.}. X}.m.a.n b v yXyXyXyXyXyXyXyXyXyXyXyXyXyXyXyXyXyXyX",
"yXyXyXyXyXyXyXyXyXyX* $ 2 %.8XeX8X@Xv.b.x.a.n n v a.f.f.f.f.f.f.h.l.n./.n.n.n.n.c.z.z.z.z.yXyXyXyXyXyXyXyXyXyXyXyXyXyXyXyXyXyXyX",
"yXyXyXyXyXyX      2 yXyXyXyXyXyXyXwX8X9XqXz.x x g = . . . X .   = l } D { { b { z.@X@X#X#XyXyXyXyXyXyXyXyXyXyXyXyXyXyXyXyXyXyXyX",
"yXyXyXyXyXyX      2 yXyXyXyXyXyXyXwX9X9XqXx.x x g +   .         + l { { { b v b z.@X#X#X#XyXyXyXyXyXyXyXyXyXyXyXyXyXyXyXyXyXyXyX",
"yXyXyXyXyXyX      ; ..yXyXyXyXyXyX9X9X0X&X&.i i i d s s s s s s g z z z z } d.d.v.@X#X#X@XyXyXyXyXyXyXyXyXyXyXyXyXyXyXyXyXyXyXyX",
"yXyXyXyXyXyX      ; m } a.d.yXyXyX9X9X0X%X(   . = 8.Z.A.Z.Z.Z.A.9.>     % yXyXyX%X#X#X#X#XyXyXyXyXyXyXyXyXyXyXyXyXyXyXyXyXyXyXyX",
"yXyXyXyXyXyX      : n { b d.yXyXyXwX9X0X&X(     = :.A.A.A.A.A.A.9.:     # yXyXyXyX%X#X#X#XyXyXyXyXyXyXyXyXyXyXyXyXyXyXyXyXyXyXyX",
"yXyXyXyXyXyX      7 x.v.v.v.x.yXb.*X$X$XOXK     = :.B.C.B.B.C.C.9.s = = u yXyXyXyX%.%.%.%.yXyXyXyXyXyXyXyXyXyXyXyXyXyXyXyXyXyXyX",
"yXyXyXyXyXyX      ( %XeX8XoX} v } ' _ -.` 6     + :.>.<.<.<.<.<.>.c x x n yXyXyXyXX       yXyXyXyXyXyXyXyXyXyXyXyXyXyXyXyXyXyXyX",
"yXyXyXyXyXyX      ( qXeX9XoX} v I | $.=.) 4     + c <.<.<.>.<.<.>.c x x v yXyXyXyXX       yXyXyXyXyXyXyXyXyXyXyXyXyXyXyXyXyXyXyX",
"yXyXyXyXyXyXyX    y &.;.;.&.[ [ / ~ w w e $     + :.V.B.V.V.V.V.N.z : : : u q q & X     yXyXyXyXyXyXyXyXyXyXyXyXyXyXyXyXyXyXyXyX",
"yXyXyXyXyXyXyXyXyXyXX   X 8 $.-._ 5 X           * s.'.'.'.'.'.'.h.;               yXyXyXyXyXyXyXyXyXyXyXyXyXyXyXyXyXyXyXyXyXyXyX",
"yXyXyXyXyXyXyXyXyXyX      4 _ -._ 4             = s.'..X'.'.'..Xk.1 .             yXyXyXyXyXyXyXyXyXyXyXyXyXyXyXyXyXyXyXyXyXyXyX",
"yXyXyXyXyXyXyXyXyXyXyX    3 e w e %       % 4 4 y ..l.l.l.l.l.l.s.t 4 4 &         yXyXyXyXyXyXyXyXyXyXyXyXyXyXyXyXyXyXyXyXyXyXyX",
"yXyXyXyXyXyXyXyXyXyXyXyXyXyX            o w _ =.' [ D D b I I b [ ' *.O.U #       yXyXyXyXyXyXyXyXyXyXyXyXyXyXyXyXyXyXyXyXyXyXyX",
"yXyXyXyXyXyXyXyXyXyXyXyXyXyX            X w =.-.O.[ D b b b v b [ ' -.=.U #       yXyXyXyXyXyXyXyXyXyXyXyXyXyXyXyXyXyXyXyXyXyXyX",
"yXyXyXyXyXyXyXyXyXyXyXyXyXyX            X 4 e e q k ^ k [ c.(.(.c.' E E w o       yXyXyXyXyXyXyXyXyXyXyXyXyXyXyXyXyXyXyXyXyXyXyX",
"yXyXyXyXyXyXyXyXyXyXyXyXyXyXyXyXyXyXyXyXyX      X 6 K t  .;XrX5X;X .r Y 6 o       yXyXyXyXyXyXyXyXyXyXyXyXyXyXyXyXyXyXyXyXyXyXyX",
"yXyXyXyXyXyXyXyXyXyXyXyXyXyXyXyXyXyXyXyXyX      X 6 Y J ' ;X5XrX;X+.J Y 5 o     . yXyXyXyXyXyXyXyXyXyXyXyXyXyXyXyXyXyXyXyXyXyXyX",
"yXyXyXyXyXyXyXyXyXyXyXyXyXyXyXyXyXyXyXyXyXyX    o * 3 2 7 | b.j. .7 3 3 & X     yXyXyXyXyXyXyXyXyXyXyXyXyXyXyXyXyXyXyXyXyXyXyXyX",
"yXyXyXyXyXyXyXyXyXyXyXyXyXyXyXyXyXyXyXyXyXyXyXyXyX                        yXyXyXyXyXyXyXyXyXyXyXyXyXyXyXyXyXyXyXyXyXyXyXyXyXyXyX",
"yXyXyXyXyXyXyXyXyXyXyXyXyXyXyXyXyXyXyXyXyXyXyXyXyX                        yXyXyXyXyXyXyXyXyXyXyXyXyXyXyXyXyXyXyXyXyXyXyXyXyXyXyX",
"yXyXyXyXyXyXyXyXyXyXyXyXyXyXyXyXyXyXyXyXyXyXyXyXyXyXyX  yXyXyXyXyXyX  yXyXyXyXyXyXyXyXyXyXyXyXyXyXyXyXyXyXyXyXyXyXyXyXyXyXyXyXyX",
"yXyXyXyXyXyXyXyXyXyXyXyXyXyXyXyXyXyXyXyXyXyXyXyXyXyXyXyXyXyXyXyXyXyXyXyXyXyXyXyXyXyXyXyXyXyXyXyXyXyXyXyXyXyXyXyXyXyXyXyXyXyXyXyX"
};
