/* XPM */
static char *result[] = {
/* columns rows colors chars-per-pixel */
"64 64 130 2 ",
"   c #2E311F",
".  c #332F20",
"X  c #2F3321",
"o  c #2E3D25",
"O  c #323422",
"+  c #3A3624",
"@  c #323B25",
"#  c #3B3926",
"$  c #323E28",
"%  c #3A3F28",
"&  c #443D2A",
"*  c #1F4D26",
"=  c #1D5427",
"-  c #185827",
";  c #1C5628",
":  c #175E2A",
">  c #195A29",
",  c #244424",
"<  c #2C4224",
"1  c #214C26",
"2  c #2D472B",
"3  c #2D4A2B",
"4  c #324227",
"5  c #31422A",
"6  c #39462B",
"7  c #33492D",
"8  c #255229",
"9  c #2A512A",
"0  c #225D2C",
"q  c #35532D",
"w  c #375C2F",
"e  c #2E4F30",
"r  c #354630",
"t  c #364B33",
"y  c #3B4C35",
"u  c #374D39",
"i  c #384F38",
"p  c #375234",
"a  c #385536",
"s  c #375C30",
"d  c #385C33",
"f  c #375739",
"g  c #385138",
"h  c #36593A",
"j  c #14652B",
"k  c #15692E",
"l  c #1E6631",
"z  c #176C30",
"x  c #1D6F35",
"c  c #1D7136",
"v  c #39622F",
"b  c #3E6B2E",
"n  c #3F732F",
"m  c #206432",
"M  c #396230",
"N  c #366835",
"B  c #3C6B30",
"V  c #346F3A",
"C  c #22753A",
"Z  c #2C733F",
"A  c #26793F",
"S  c #3E7430",
"D  c #3E7932",
"F  c #34743B",
"G  c #337C3E",
"H  c #397A39",
"J  c #45422A",
"K  c #4C452E",
"L  c #4D4A2D",
"P  c #514D2E",
"I  c #54532E",
"U  c #57582F",
"Y  c #4F4730",
"T  c #4F4830",
"R  c #434F3A",
"E  c #504730",
"W  c #514A30",
"Q  c #565430",
"!  c #595631",
"~  c #595930",
"^  c #615E36",
"/  c #665E3B",
"(  c #436C2E",
")  c #4C7D26",
"_  c #43742D",
"`  c #497629",
"'  c #457C2D",
"]  c #497D29",
"[  c #416F31",
"{  c #407730",
"}  c #407930",
"|  c #666139",
" . c #6A643C",
".. c #277B40",
"X. c #2C7E44",
"o. c #317E41",
"O. c #347E48",
"+. c #417F4F",
"@. c #65695B",
"#. c #75766B",
"$. c #3F8234",
"%. c #37843D",
"&. c #578F1F",
"*. c #588F1F",
"=. c #59911F",
"-. c #4E8527",
";. c #4A8229",
":. c #478A2F",
">. c #4F8928",
",. c #508725",
"<. c #548D23",
"1. c #588F20",
"2. c #579123",
"3. c #599221",
"4. c #5E9925",
"5. c #448731",
"6. c #619E29",
"7. c #65A42D",
"8. c #68A730",
"9. c #68A830",
"0. c #2E8146",
"q. c #308043",
"w. c #32844A",
"e. c #36884E",
"r. c #3B8D53",
"t. c #3F9157",
"y. c #419359",
"u. c #A3B4A4",
"i. c #B5C5B7",
"p. c None",
/* pixels */
"p.p.p.p.p.p.p.p.p.p.p.p.p.p.p.p.p.p.p.p.p.p.p.p.p.p.p.p.p.p.g g g g i i p.p.p.p.p.p.p.p.p.p.p.p.p.p.p.p.p.p.p.p.p.p.p.p.p.p.p.p.",
"p.p.p.p.p.p.p.p.p.p.p.p.p.p.p.p.p.p.p.p.p.p.p.p.p.p.p.g u h B ` ) ) { M i u p.p.p.p.p.p.p.p.p.p.p.p.p.p.p.p.p.p.p.p.p.p.p.p.p.p.",
"p.p.p.p.p.p.p.p.p.p.p.p.p.p.p.p.p.p.p.p.p.p.p.p.p.p.d M ( ` -.4.7.6.<.) ( ( d g p.p.p.p.p.p.p.p.p.p.p.p.p.p.p.p.p.p.p.p.p.p.p.p.",
"p.p.p.p.p.p.p.p.p.p.p.p.p.p.p.p.p.p.p.p.p.p.p.p.p.f B ] 2.4.4.7.8.8.7.4.6.>.{ d g p.p.p.p.p.p.p.p.p.p.p.p.p.p.p.p.p.p.p.p.p.p.p.",
"p.p.p.p.p.p.p.p.p.p.p.p.p.p.p.p.p.p.p.p.p.p.a a R { ;.3.7.9.9.9.9.9.9.9.8.4.,.' ( g g p.p.p.p.p.p.p.p.p.p.p.p.p.p.p.p.p.p.p.p.p.",
"p.p.p.p.p.p.p.p.p.p.p.p.p.p.p.p.p.p.p.p.p.g B ] <.2.4.7.9.7.9.9.9.9.9.9.8.8.6.1.<.-.{ f i p.p.p.p.p.p.p.p.p.p.p.p.p.p.p.p.p.p.p.",
"p.p.p.p.p.p.p.p.p.p.p.p.p.p.p.p.p.p.p.p.f [ ;.<.3.6.7.8.9.9.9.9.9.9.8.9.8.8.8.7.3.1.<._ M g p.p.p.p.p.p.p.p.p.p.p.p.p.p.p.p.p.p.",
"p.p.p.p.p.p.p.p.p.p.p.p.p.p.p.p.p.p.p.a R ,.<.*.<.7.8.8.9.9.9.9.9.8.9.9.8.8.8.8.4.1.1.<.{ g p.p.p.p.p.p.p.p.p.p.p.p.p.p.p.p.p.p.",
"p.p.p.p.p.p.p.p.p.p.p.p.p.p.p.p.p.p.p.i d -.<.3.4.7.9.9.9.9.9.9.9.9.8.9.8.8.8.9.7.=.*.,.( g i p.p.p.p.p.p.p.p.p.p.p.p.p.p.p.p.p.",
"p.p.p.p.p.p.p.p.p.p.p.p.p.p.p.p.g a h h d ' ,.4.7.9.9.9.9.9.9.7.9.9.9.9.8.8.8.8.9.7.2.-.[ d h f g p.p.p.p.p.p.p.p.p.p.p.p.p.p.p.",
"p.p.p.p.p.p.p.p.p.p.p.p.p.p.p.g a N o.H ] <.1.4.7.9.9.9.9.9.9.9.9.9.9.9.9.9.9.9.9.6.*.*.,.D G F M a g p.p.p.p.p.p.p.p.p.p.p.p.p.",
"p.p.p.p.p.p.p.p.p.p.p.p.p.p.a d B H o.5.1.3.1.3.3.7.9.9.9.9.9.9.9.9.9.8.9.9.9.8.4.2.*.2.*.,.%.G _ M f g p.p.p.p.p.p.p.p.p.p.p.p.",
"p.p.p.p.p.p.p.p.p.p.p.p.p.i a B } D q.:.*.*.*.*.2.6.9.9.9.7.4.7.9.7.4.4.9.9.9.7.3.*.*.*.*.2.%.G } { d g p.p.p.p.p.p.p.p.p.p.p.p.",
"p.p.p.p.p.p.p.p.p.p.p.p.p.i f M M N F ;.2.>.<.3.4.7.9.6.6.4.3.6.9.8.4.3.6.6.7.7.7.4.&.-.,.2.$.F B B f g p.p.p.p.p.p.p.p.p.p.p.p.",
"p.p.p.p.p.p.p.p.p.p.p.p.p.g g a f d v ) -.D ,.4.9.9.7.2.*.3.3.7.9.9.4.3.2.*.4.8.9.7.2.' ;.,.' n M d a g p.p.p.p.p.p.p.p.p.p.p.p.",
"p.p.p.p.p.p.p.p.p.p.p.p.p.g a M b ' D D D ' ,.3.7.7.7.*.=.3.7.9.9.9.9.7.3.<.4.7.7.4.2.;.D n D D } { [ g p.p.p.p.p.p.p.p.p.p.p.p.",
"p.p.p.p.p.p.p.p.p.p.p.p.g a M S S D S D ' <.&.=.3.3.3.2.2.&.3.7.9.9.4.3.2.*.*.2.3.3.*.2.` B n D } { B d g p.p.p.p.p.p.p.p.p.p.p.",
"p.p.p.p.p.p.p.p.p.p.p.7 s s v S } _ B M _ <.=.=.2.-.] ;.,.*.2.3.4.3.3.*.*.;.] ;.<.=.*.*.) M v b B { B M d q 5 o p.p.p.p.p.p.p.p.",
"p.p.p.p.p.p.p.p.p.p.$ 7 w M M B B B s M ` <.,.-.;.] S D ,.*.*.*.*.*.*.*.2.;.S D ;.;.-.<.;.b b v d B B d s p 7 5 4 p.p.p.p.p.p.p.",
"p.p.p.p.p.p.p.p.p.p.p.7 v b B B B s B n ' ;.' S n D D ;.<.*.3.<.,.>.&.*.2.;.] D D D D ) ] ' D n v M M B B s t 5 p.p.p.p.p.p.p.p.",
"p.p.p.p.p.p.p.p.p.p.p.p.} } { { v B n S D n B M D D ] 2.=.*.<.] D ' ;.&.*.=.;._ n D n b v S D D S v B { } v 7 p.p.p.p.p.p.p.p.p.",
"p.p.p.p.p.p.p.5 5 5 t d S S _ M s B S S n v s B _ D ] <.=.;.' D D D D ;.<.2.-.v n D D v M v S D S B B } S b d a t 4 5 5 p.p.p.p.",
"p.p.p.p.p.p.5 7 p q d d d f d a s M B B M v b S n B v b ' _ N n D D b b ] ] n M v B _ n B M v v B v d d d d M d w q t 7 5 p.p.p.",
"p.p.p.p.p.p.$ r g a d a a d a g f M w s s M n D D B v b n n v B ' S b v D D n B M B D ' B M M s s d s a d a d s d a g t o p.p.p.",
"p.p.p.p.p.p.5 7 t i i g a v v a s M B B B s b S B v B S S B M S n D B v B S D ' v v B S B s B b B M d M s s f g i i t r 2 p.p.p.",
"p.p.p.p.p.p.p.p.5 t i i g a s v v B n D S s s s s M B S v s v S D _ b v M B S S B w M s s M n D S B M d a g i t i t 5 p.p.p.p.p.",
"p.p.p.p.p.p.p.p.p.5 < 5 g g f { D S ' S B B v d M M s w s B n D ' _ D b v M M s s M M s M M S S { } B g d a g 7 2 5 p.p.p.p.p.p.",
"p.p.p.p.p.p.p.p.p.$ 7 g d a f S ' ' D B v M s M S b s M s B ' S D D D n s s M v s B S B s v M b D } M d B b s g 5 $ p.p.p.p.p.p.",
"p.p.p.p.p.p.p.p.5 t g M B B s d d f f R d M B S S B M s M v B S D D B v M b B M s b S S B d a a d d d M S D b s p t 5 p.p.p.p.p.",
"p.p.p.p.p.p.p.o 5 i M B B B s a d M M f f B { } n N w s B B M B n B v v B S B M M B D ' { B a g d f f M B b B S M i 5 o p.p.p.p.",
"p.p.p.p.p.p.5 2 7 g B S s v M v { } } M f { } ' n B s B B b M s w M w b D ' S N d v { { } { f ( { B M M d v v n M g 7 5 5 p.p.p.",
"p.p.p.p.p.p.$ r g s s s s d s M B { { f f { } [ v s B S D n v M w M v b n D D n B d d B { { f d { { B M v s d d M d g t o p.p.p.",
"p.p.p.p.p.p.o t g g g i g s s M M M M a f { B s a g d D S ' S B M M S n D D ' S d i g d B S d a v v M d M s g u g g y r 2 p.p.p.",
"p.p.p.p.p.p.5 5 7 5 5 7 g f v M v v s d g d a s a a a v S D S B s v b D ' S B B d a a d f d a a M M v v w s i 7 5 7 7 5 $ p.p.p.",
"p.p.p.p.p.p.p.p.p.p.o 7 t a M w d d a d d a a f v a g f B S b M a s B S D } B f g p M s a a a a M s d v v f i 5 o p.p.p.p.p.p.p.",
"p.p.p.p.p.p.p.p.p.p.o 7 g d M w v d g a d d M s s a g g B B a a a a g M S b B g g a s v v d a a v v M w v p i 2 o p.p.p.p.p.p.p.",
"p.p.p.p.p.p.p.p.p.p.5 7 g s d M v s g g a s v s a d d a a a a s M M a a d w a a s s g d M s a a s s M M s s g 7 5 p.p.p.p.p.p.p.",
"p.p.p.p.p.p.p.p.p.5 7 i s v v s a g g a v M M s a a v v s g a d v s v s g g a v v s g a M s a g a d s M s M s g 7 5 p.p.p.p.p.p.",
"p.p.p.p.p.p.p.p.p.$ t i a s d g g a g s v s d g g p v d v a a a w M p a g s M w M f g g s s g y g f g a s s a g r $ p.p.p.p.p.p.",
"p.p.p.p.p.p.p.p.p.2 r g g a g 7 7 7 a d M a g g g s v v a p 7 p f a g i r g s v M s g g g a s p 7 X o r a a g g r 2 p.p.p.p.p.p.",
"p.p.p.p.p.p.p.p.p.5 7 r r t 7 $ o 7 s d a g t t g f d s d t 5 t g y i 2 5 t f d d d i t t g d q r #.@.5 7 t t t 5 2 p.p.p.p.p.p.",
"p.p.p.p.p.p.p.p.p.5 $ $ o 2 2 $ $ 4 q y i f 3 2 r t g s i r 4 y y g 6 4 4 r y s p t t 2 e h s < R i.u.7 o o $ 5 $ $ p.p.p.p.p.p.",
"p.p.p.p.p.p.p.p.p.p.p.p.p.p.p.p.@ O O . 3 Z c ; O $ 7 u @ # Y W Y E E E Y + $ y 7 o X ; c Z 2   4 +.y.p.p.p.p.p.p.p.p.p.p.p.p.p.",
"p.p.p.p.p.p.p.p.p.p.p.p.p.p.p.t.o.....m : k j 0 # . O O   # I W E W E W K + X O X # K 0 k k : m ..O.e.t.p.p.p.p.p.p.p.p.p.p.p.p.",
"p.p.p.p.p.p.p.p.p.p.p.p.p.p.p.y.e.0.0.c j j 8 6 K & & J & K ! U W W Y W Q L J J & K Y 6 8 j j c o.X.e.t.p.p.p.p.p.p.p.p.p.p.p.p.",
"p.p.p.p.p.p.p.p.p.p.p.p.p.p.r.e.w...C z j 8 # & E W W W W P U ~ Q Q I I ~ ~ Q W E Y E & % 8 j k C X.O.e.r.p.p.p.p.p.p.p.p.p.p.p.",
"p.p.p.p.p.p.p.p.p.p.p.p.p.y.r.q.X.A k : 9 & & & E W E K P W U ~ ~ ~ I I ~ ~ Q Q Y Y Y J & & 9 : j ..X.X.r.y.p.p.p.p.p.p.p.p.p.p.",
"p.p.p.p.p.p.p.p.p.p.p.p.p.y.r.0.X.A j 2 & K W W E K K & I ~ ~ ! Q I J L I ~ ~ I & & Y Y Y K & 2 k ..X.w.r.y.p.p.p.p.p.p.p.p.p.p.",
"p.p.p.p.p.p.p.p.p.p.p.p.p.y.r.w.X.A j , + Y Y T Y # J | ^ ~ ! I K & P I ~  .| L + # T L E K + , k ..X.0.r.y.p.p.p.p.p.p.p.p.p.p.",
"p.p.p.p.p.p.p.p.p.p.p.p.t.e.0.X.C k j , . + + + + J !  .^ ~ ~ W K & I ~ ~  .| P # . @ + + @ * : j l C X.0.e.t.p.p.p.p.p.p.p.p.p.",
"p.p.p.p.p.p.p.p.p.p.p.p.p.r.e.X...x j - 1 * X   + Q  .| ~ ~ W J + + K Q ~ ^ | | J . X , 1 * : j j x ..X.e.r.p.p.p.p.p.p.p.p.p.p.",
"p.p.p.p.p.p.p.p.p.p.p.p.p.y.r.0.o...x k j j , . & ! | U ~ W J o o o % K Q U ^ | K + X - j j j j c X.X.X.r.y.p.p.p.p.p.p.p.p.p.p.",
"p.p.p.p.p.p.p.p.p.p.p.p.p.p.r.w.X.X.X.C j j 1 O + K Q I L % o - j j * X K L I P & + o - j z z C X.X.X.w.r.p.p.p.p.p.p.p.p.p.p.p.",
"p.p.p.p.p.p.p.p.p.p.p.p.p.p.p.r.e.X.0.X.A j j = X O O O O < : j j j j - O O O O O , : j x X.X.X.X.X.e.t.p.p.p.p.p.p.p.p.p.p.p.p.",
"p.p.p.p.p.p.p.p.p.p.p.p.p.p.p.p.r.r.X.X.X...A C > - - : - : j j j j j : : > - > - l A A ..X.0.X.0.r.t.p.p.p.p.p.p.p.p.p.p.p.p.p.",
"p.p.p.p.p.p.p.p.p.p.p.p.p.p.p.p.p.p.p.e.r.r.w.X.C C C C C C C C C C C C C C C C C A X.e.r.e.r.e.p.p.p.p.p.p.p.p.p.p.p.p.p.p.p.p.",
"p.p.p.p.p.p.p.p.p.p.p.p.p.p.p.p.p.p.p.p.y.t.e.e.e.e.w.0.X.X.X.X.X.X.X.X.X.X.w.e.e.e.e.r.y.y.y.p.p.p.p.p.p.p.p.p.p.p.p.p.p.p.p.p.",
"p.p.p.p.p.p.p.p.p.p.p.p.p.p.p.p.p.p.p.p.p.p.p.t.t.t.r.w.w.w.w.w.w.w.w.w.w.0.w.t.y.t.r.p.p.p.p.p.p.p.p.p.p.p.p.p.p.p.p.p.p.p.p.p.",
"p.p.p.p.p.p.p.p.p.p.p.p.p.p.p.p.p.p.p.p.p.p.p.p.p.p.p.t.r.t.t.t.r.t.t.t.t.t.t.p.p.p.p.p.p.p.p.p.p.p.p.p.p.p.p.p.p.p.p.p.p.p.p.p.",
"p.p.p.p.p.p.p.p.p.p.p.p.p.p.p.p.p.p.p.p.p.p.p.p.p.p.p.p.p.p.p.p.p.p.p.p.p.p.p.p.p.p.p.p.p.p.p.p.p.p.p.p.p.p.p.p.p.p.p.p.p.p.p.p.",
"p.p.p.p.p.p.p.p.p.p.p.p.p.p.p.p.p.p.p.p.p.p.p.p.p.p.p.p.p.p.p.p.p.p.p.p.p.p.p.p.p.p.p.p.p.p.p.p.p.p.p.p.p.p.p.p.p.p.p.p.p.p.p.p.",
"p.p.p.p.p.p.p.p.p.p.p.p.p.p.p.p.p.p.p.p.p.p.p.p.p.p.p.p.p.p.p.p.p.p.p.p.p.p.p.p.p.p.p.p.p.p.p.p.p.p.p.p.p.p.p.p.p.p.p.p.p.p.p.p.",
"p.p.p.p.p.p.p.p.p.p.p.p.p.p.p.p.p.p.p.p.p.p.p.p.p.p.p.p.p.p.p.p.p.p.p.p.p.p.p.p.p.p.p.p.p.p.p.p.p.p.p.p.p.p.p.p.p.p.p.p.p.p.p.p.",
"p.p.p.p.p.p.p.p.p.p.p.p.p.p.p.p.p.p.p.p.p.p.p.p.p.p.p.p.p.p.p.p.p.p.p.p.p.p.p.p.p.p.p.p.p.p.p.p.p.p.p.p.p.p.p.p.p.p.p.p.p.p.p.p."
};
